STARTFONT 2.1
FONT -FontForge-Letters for Learners-Book-R-Normal--28-200-100-100-P-104-ISO10646-1
SIZE 20 100 100
FONTBOUNDINGBOX 23 30 -3 -7
COMMENT "Generated by fontforge, http://fontforge.sourceforge.net"
COMMENT "Copyright (c) 2017 by Brittney Murphy. All rights reserved."
STARTPROPERTIES 40
FOUNDRY "FontForge"
FAMILY_NAME "Letters for Learners"
WEIGHT_NAME "Book"
SLANT "R"
SETWIDTH_NAME "Normal"
ADD_STYLE_NAME ""
PIXEL_SIZE 28
POINT_SIZE 200
RESOLUTION_X 100
RESOLUTION_Y 100
SPACING "P"
AVERAGE_WIDTH 104
CHARSET_REGISTRY "ISO10646"
CHARSET_ENCODING "1"
FONTNAME_REGISTRY ""
CHARSET_COLLECTIONS "ISO8859-2 ISO8859-9 ISO8859-4 ISO10646-1"
FONT_NAME "LettersforLearners"
FACE_NAME "Letters for Learners"
COPYRIGHT "Copyright (c) 2017 by Brittney Murphy. All rights reserved."
FONT_VERSION "1.000"
FONT_ASCENT 21
FONT_DESCENT 7
UNDERLINE_POSITION -3
UNDERLINE_THICKNESS 2
X_HEIGHT 9
CAP_HEIGHT 16
DEFAULT_CHAR 1
RAW_ASCENT 750
RAW_DESCENT 250
NORM_SPACE 8
RELATIVE_WEIGHT 40
RELATIVE_SETWIDTH 50
SUPERSCRIPT_X 0
SUPERSCRIPT_Y 13
SUPERSCRIPT_SIZE 18
SUBSCRIPT_X 0
SUBSCRIPT_Y 3
SUBSCRIPT_SIZE 18
AVG_LOWERCASE_WIDTH 97
AVG_UPPERCASE_WIDTH 128
ENDPROPERTIES
CHARS 370
STARTCHAR NULL.dup1
ENCODING 0
SWIDTH 0 0
DWIDTH 0 0
BBX 1 1 0 0
BITMAP
00
ENDCHAR
STARTCHAR nonmarkingreturn
ENCODING 13
SWIDTH 294 0
DWIDTH 8 0
BBX 1 1 0 0
BITMAP
00
ENDCHAR
STARTCHAR space
ENCODING 32
SWIDTH 280 0
DWIDTH 8 0
BBX 1 1 0 0
BITMAP
00
ENDCHAR
STARTCHAR exclam
ENCODING 33
SWIDTH 170 0
DWIDTH 5 0
BBX 1 17 2 0
BITMAP
80
80
80
80
80
80
80
80
80
80
80
80
80
80
80
00
80
ENDCHAR
STARTCHAR quotedbl
ENCODING 34
SWIDTH 200 0
DWIDTH 6 0
BBX 4 6 1 9
BITMAP
90
90
90
90
90
90
ENDCHAR
STARTCHAR numbersign
ENCODING 35
SWIDTH 507 0
DWIDTH 14 0
BBX 12 12 1 2
BITMAP
1080
1080
1080
FFF0
1080
1080
1080
1080
FFF0
1080
1080
1080
ENDCHAR
STARTCHAR dollar
ENCODING 36
SWIDTH 328 0
DWIDTH 9 0
BBX 7 16 1 0
BITMAP
10
10
10
7C
96
90
F0
78
1E
12
92
FC
30
10
10
10
ENDCHAR
STARTCHAR percent
ENCODING 37
SWIDTH 573 0
DWIDTH 16 0
BBX 14 17 1 0
BITMAP
0040
0060
0040
70C0
9080
8880
8980
9100
7338
0224
0644
0644
0424
0C38
0800
1800
1000
ENDCHAR
STARTCHAR ampersand
ENCODING 38
SWIDTH 358 0
DWIDTH 10 0
BBX 9 17 1 -1
BITMAP
1000
7C00
8400
8400
8400
4C00
6800
7800
3000
7800
C800
C900
8780
CE00
FE00
0200
0300
ENDCHAR
STARTCHAR quotesingle
ENCODING 39
SWIDTH 89 0
DWIDTH 3 0
BBX 1 6 1 9
BITMAP
80
80
80
80
80
80
ENDCHAR
STARTCHAR parenleft
ENCODING 40
SWIDTH 288 0
DWIDTH 8 0
BBX 7 19 1 -1
BITMAP
0C
18
30
20
60
40
C0
C0
80
80
80
80
C0
40
60
20
30
1C
06
ENDCHAR
STARTCHAR parenright
ENCODING 41
SWIDTH 289 0
DWIDTH 8 0
BBX 7 19 0 -1
BITMAP
C0
70
18
08
04
06
06
02
02
02
02
06
06
04
0C
08
18
30
60
ENDCHAR
STARTCHAR asterisk
ENCODING 42
SWIDTH 269 0
DWIDTH 8 0
BBX 7 8 0 4
BITMAP
10
10
D6
7C
38
FE
94
10
ENDCHAR
STARTCHAR plus
ENCODING 43
SWIDTH 311 0
DWIDTH 9 0
BBX 7 8 1 2
BITMAP
10
10
10
FE
10
10
10
10
ENDCHAR
STARTCHAR comma
ENCODING 44
SWIDTH 111 0
DWIDTH 3 0
BBX 3 5 0 -3
BITMAP
40
60
60
60
C0
ENDCHAR
STARTCHAR hyphen
ENCODING 45
SWIDTH 262 0
DWIDTH 7 0
BBX 7 2 0 6
BITMAP
0E
FE
ENDCHAR
STARTCHAR period
ENCODING 46
SWIDTH 69 0
DWIDTH 2 0
BBX 2 1 0 0
BITMAP
C0
ENDCHAR
STARTCHAR slash
ENCODING 47
SWIDTH 237 0
DWIDTH 7 0
BBX 6 18 0 -1
BITMAP
04
04
0C
0C
08
08
18
18
10
30
30
20
20
60
40
40
C0
80
ENDCHAR
STARTCHAR zero
ENCODING 48
SWIDTH 492 0
DWIDTH 14 0
BBX 12 16 1 0
BITMAP
1F80
39C0
6060
4020
8030
8010
8010
8010
8010
8010
8010
8010
4020
4020
20C0
1F00
ENDCHAR
STARTCHAR one
ENCODING 49
SWIDTH 177 0
DWIDTH 5 0
BBX 1 16 2 0
BITMAP
80
80
80
80
80
80
80
80
80
80
80
80
80
80
80
80
ENDCHAR
STARTCHAR two
ENCODING 50
SWIDTH 400 0
DWIDTH 11 0
BBX 10 16 1 0
BITMAP
3E00
6300
C100
C100
0100
0300
0200
0600
0C00
0800
1800
3000
2000
6000
C000
FFC0
ENDCHAR
STARTCHAR three
ENCODING 51
SWIDTH 445 0
DWIDTH 12 0
BBX 10 17 2 0
BITMAP
3E00
FF00
0180
0080
0080
0080
0100
0700
7E00
0180
0040
0040
0040
0040
81C0
FF80
0C00
ENDCHAR
STARTCHAR four
ENCODING 52
SWIDTH 394 0
DWIDTH 10 0
BBX 9 17 1 0
BITMAP
8000
8200
8200
8200
8200
8200
8200
8200
8200
FF80
0200
0200
0200
0200
0200
0200
0200
ENDCHAR
STARTCHAR five
ENCODING 53
SWIDTH 421 0
DWIDTH 12 0
BBX 11 16 0 0
BITMAP
7F00
4000
4000
4000
4000
4000
4000
7F00
00C0
0020
0020
0020
0020
0060
FFC0
0E00
ENDCHAR
STARTCHAR six
ENCODING 54
SWIDTH 389 0
DWIDTH 11 0
BBX 9 17 1 0
BITMAP
3000
2000
6000
4000
4000
C000
8000
9C00
BF00
E180
C080
8080
8080
8080
C100
4300
3C00
ENDCHAR
STARTCHAR seven
ENCODING 55
SWIDTH 315 0
DWIDTH 9 0
BBX 9 16 0 0
BITMAP
FF00
0180
0100
0300
0200
0200
0600
0600
0400
0400
0C00
0800
0800
1800
1000
1000
ENDCHAR
STARTCHAR eight
ENCODING 56
SWIDTH 435 0
DWIDTH 12 0
BBX 10 17 1 0
BITMAP
1E00
7F00
C080
8040
8040
8040
8040
6180
3F00
7F80
C0C0
8040
8040
8040
8080
4180
3E00
ENDCHAR
STARTCHAR nine
ENCODING 57
SWIDTH 392 0
DWIDTH 10 0
BBX 8 18 1 -1
BITMAP
01
3D
47
83
81
81
81
81
43
3D
01
01
01
01
01
01
01
01
ENDCHAR
STARTCHAR colon
ENCODING 58
SWIDTH 89 0
DWIDTH 2 0
BBX 1 6 1 2
BITMAP
80
00
00
00
00
80
ENDCHAR
STARTCHAR semicolon
ENCODING 59
SWIDTH 131 0
DWIDTH 4 0
BBX 2 10 1 -2
BITMAP
80
00
00
00
80
C0
40
40
C0
80
ENDCHAR
STARTCHAR less
ENCODING 60
SWIDTH 299 0
DWIDTH 8 0
BBX 8 10 0 0
BITMAP
02
04
18
30
60
C0
E0
38
0E
03
ENDCHAR
STARTCHAR equal
ENCODING 61
SWIDTH 307 0
DWIDTH 9 0
BBX 7 4 1 5
BITMAP
FE
00
00
FE
ENDCHAR
STARTCHAR greater
ENCODING 62
SWIDTH 291 0
DWIDTH 8 0
BBX 7 10 1 0
BITMAP
80
C0
30
18
0C
06
0C
38
60
80
ENDCHAR
STARTCHAR question
ENCODING 63
SWIDTH 307 0
DWIDTH 9 0
BBX 7 17 1 0
BITMAP
60
FC
06
02
02
02
02
04
78
60
40
40
40
40
00
00
40
ENDCHAR
STARTCHAR at
ENCODING 64
SWIDTH 676 0
DWIDTH 19 0
BBX 17 17 1 -4
BITMAP
03F000
0E0C00
180300
301100
63D180
667080
481080
C81080
C81080
481080
443100
63CF00
200000
300000
1C0600
07FC00
01F000
ENDCHAR
STARTCHAR A
ENCODING 65
SWIDTH 442 0
DWIDTH 12 0
BBX 12 18 0 -1
BITMAP
0600
0600
0600
0F00
0900
0900
1980
1880
1080
30C0
3040
3FC0
2060
6020
4020
4030
C010
8000
ENDCHAR
STARTCHAR B
ENCODING 66
SWIDTH 450 0
DWIDTH 13 0
BBX 10 17 2 0
BITMAP
FE00
8100
8080
8080
8080
8080
8100
8300
FE00
8180
8040
8040
8040
8040
8040
8180
FF00
ENDCHAR
STARTCHAR C
ENCODING 67
SWIDTH 427 0
DWIDTH 12 0
BBX 10 16 1 0
BITMAP
1C00
7600
4300
C100
8100
8000
8000
8000
8000
8000
8000
8080
C0C0
4080
6380
3E00
ENDCHAR
STARTCHAR D
ENCODING 68
SWIDTH 492 0
DWIDTH 14 0
BBX 12 16 1 0
BITMAP
F800
8700
8180
8040
8020
8010
8010
8010
8010
8010
8010
8020
8060
8080
8700
F800
ENDCHAR
STARTCHAR E
ENCODING 69
SWIDTH 445 0
DWIDTH 12 0
BBX 10 17 2 0
BITMAP
07C0
FFC0
8000
8000
8000
8000
8000
8000
FF80
8000
8000
8000
8000
8000
8000
8000
FFC0
ENDCHAR
STARTCHAR F
ENCODING 70
SWIDTH 398 0
DWIDTH 11 0
BBX 9 15 2 1
BITMAP
FF80
8000
8000
8000
8000
8000
8000
FF00
8000
8000
8000
8000
8000
8000
8000
ENDCHAR
STARTCHAR G
ENCODING 71
SWIDTH 488 0
DWIDTH 13 0
BBX 11 17 1 0
BITMAP
0F00
3180
40C0
4040
8000
8000
8000
8000
8FE0
8020
8020
8020
C060
4040
20C0
3080
1F00
ENDCHAR
STARTCHAR H
ENCODING 72
SWIDTH 502 0
DWIDTH 13 0
BBX 10 17 2 0
BITMAP
8000
8040
8040
8040
8040
8040
8040
8040
FFC0
8040
8040
8040
8040
8040
8040
8040
8040
ENDCHAR
STARTCHAR I
ENCODING 73
SWIDTH 368 0
DWIDTH 10 0
BBX 9 16 0 0
BITMAP
FF80
0800
0800
0800
0800
0800
0800
0800
0800
0800
0800
0800
0800
0800
0800
FF80
ENDCHAR
STARTCHAR J
ENCODING 74
SWIDTH 395 0
DWIDTH 11 0
BBX 9 17 0 0
BITMAP
0080
0080
0080
0080
0080
0080
0080
0080
0080
0080
0080
0080
0080
C080
4180
6100
1E00
ENDCHAR
STARTCHAR K
ENCODING 75
SWIDTH 440 0
DWIDTH 12 0
BBX 10 16 2 0
BITMAP
8300
8600
8C00
9800
B000
A000
C000
C000
C000
F000
9800
8C00
8600
8380
80C0
8040
ENDCHAR
STARTCHAR L
ENCODING 76
SWIDTH 388 0
DWIDTH 11 0
BBX 9 16 2 0
BITMAP
8000
8000
8000
8000
8000
8000
8000
8000
8000
8000
8000
8000
8000
8000
8000
FF80
ENDCHAR
STARTCHAR M
ENCODING 77
SWIDTH 628 0
DWIDTH 18 0
BBX 16 17 1 0
BITMAP
6004
600C
600C
700C
501E
5016
D836
C836
C822
CC62
C462
C442
86C2
8282
8383
8383
8103
ENDCHAR
STARTCHAR N
ENCODING 78
SWIDTH 475 0
DWIDTH 13 0
BBX 11 17 1 0
BITMAP
8020
8020
C020
E020
B020
B020
9820
8C20
8C20
8620
8320
8320
81A0
80E0
80E0
8060
8020
ENDCHAR
STARTCHAR O
ENCODING 79
SWIDTH 517 0
DWIDTH 14 0
BBX 12 16 1 0
BITMAP
1F80
39C0
6060
4020
8030
8010
8010
8010
8010
8010
8010
8010
4020
4020
30C0
0F00
ENDCHAR
STARTCHAR P
ENCODING 80
SWIDTH 432 0
DWIDTH 12 0
BBX 10 17 1 0
BITMAP
FF00
8180
8040
8040
8040
8040
8040
80C0
8180
FE00
8000
8000
8000
8000
8000
8000
8000
ENDCHAR
STARTCHAR Q
ENCODING 81
SWIDTH 516 0
DWIDTH 14 0
BBX 12 18 1 -2
BITMAP
1F80
39C0
6060
4020
8030
8010
8010
8010
8010
8010
8210
8310
41A0
40E0
20E0
1FA0
0030
0010
ENDCHAR
STARTCHAR R
ENCODING 82
SWIDTH 470 0
DWIDTH 13 0
BBX 10 16 2 0
BITMAP
FE00
8100
8080
8080
8080
8080
8080
8300
FE00
8600
8200
8300
8100
8180
80C0
8040
ENDCHAR
STARTCHAR S
ENCODING 83
SWIDTH 469 0
DWIDTH 13 0
BBX 11 17 1 0
BITMAP
0600
3F80
40C0
8000
8000
8000
8000
6000
3E00
0780
0060
0020
0020
0020
8060
F1C0
3F00
ENDCHAR
STARTCHAR T
ENCODING 84
SWIDTH 381 0
DWIDTH 11 0
BBX 9 16 1 0
BITMAP
FF80
0800
0800
0800
0800
0800
0800
0800
0800
0800
0800
0800
0800
0800
0800
0800
ENDCHAR
STARTCHAR U
ENCODING 85
SWIDTH 496 0
DWIDTH 13 0
BBX 11 17 1 0
BITMAP
0020
8020
8020
8020
8020
8020
8020
8020
8020
8020
8020
8020
8020
C040
4040
6080
1F00
ENDCHAR
STARTCHAR V
ENCODING 86
SWIDTH 426 0
DWIDTH 12 0
BBX 12 17 0 0
BITMAP
0020
C030
4020
4020
6060
2040
2040
30C0
10C0
1080
1880
0980
0900
0D00
0500
0700
0600
ENDCHAR
STARTCHAR W
ENCODING 87
SWIDTH 692 0
DWIDTH 19 0
BBX 18 17 1 0
BITMAP
800080
8080C0
80C0C0
81C080
C16080
C12080
432080
423080
421180
461180
641900
240900
2C0D00
280D00
280500
380700
100300
ENDCHAR
STARTCHAR X
ENCODING 88
SWIDTH 430 0
DWIDTH 12 0
BBX 10 17 1 0
BITMAP
8040
C0C0
4080
6180
3100
1300
1E00
0C00
0C00
0C00
1A00
3300
2100
6180
4080
C0C0
8040
ENDCHAR
STARTCHAR Y
ENCODING 89
SWIDTH 386 0
DWIDTH 11 0
BBX 9 17 1 0
BITMAP
8080
8080
C180
4100
6300
2200
3600
1400
1C00
0800
0800
0800
0800
0800
0800
0800
0800
ENDCHAR
STARTCHAR Z
ENCODING 90
SWIDTH 407 0
DWIDTH 11 0
BBX 10 17 1 0
BITMAP
07C0
FF80
0080
0100
0300
0200
0600
0400
0C00
1800
1000
3000
2000
6000
4000
C000
FFC0
ENDCHAR
STARTCHAR bracketleft
ENCODING 91
SWIDTH 258 0
DWIDTH 7 0
BBX 5 17 2 0
BITMAP
F0
80
80
80
80
80
80
80
80
80
80
80
80
80
80
80
F8
ENDCHAR
STARTCHAR backslash
ENCODING 92
SWIDTH 236 0
DWIDTH 7 0
BBX 6 18 0 -1
BITMAP
80
C0
40
40
60
20
20
30
30
10
10
18
08
08
0C
0C
04
04
ENDCHAR
STARTCHAR bracketright
ENCODING 93
SWIDTH 258 0
DWIDTH 7 0
BBX 6 17 0 0
BITMAP
FC
0C
0C
0C
0C
0C
0C
0C
0C
0C
0C
0C
0C
0C
0C
0C
7C
ENDCHAR
STARTCHAR asciicircum
ENCODING 94
SWIDTH 280 0
DWIDTH 8 0
BBX 9 17 -1 0
BITMAP
FF80
0000
0000
0000
0000
0000
0000
7C00
0000
0000
0000
0000
0000
0000
0000
0000
FF80
ENDCHAR
STARTCHAR underscore
ENCODING 95
SWIDTH 262 0
DWIDTH 7 0
BBX 7 1 0 0
BITMAP
FE
ENDCHAR
STARTCHAR grave
ENCODING 96
SWIDTH 147 0
DWIDTH 4 0
BBX 4 4 0 11
BITMAP
80
C0
60
30
ENDCHAR
STARTCHAR a
ENCODING 97
SWIDTH 366 0
DWIDTH 9 0
BBX 7 11 1 0
BITMAP
02
02
7E
46
82
82
82
82
4E
7E
02
ENDCHAR
STARTCHAR b
ENCODING 98
SWIDTH 414 0
DWIDTH 11 0
BBX 9 16 1 0
BITMAP
8000
8000
8000
8000
8000
8000
8C00
FF00
C180
8080
8080
8080
8080
C300
FE00
8000
ENDCHAR
STARTCHAR c
ENCODING 99
SWIDTH 369 0
DWIDTH 10 0
BBX 8 10 1 0
BITMAP
38
7C
C6
82
80
80
80
81
C3
7C
ENDCHAR
STARTCHAR d
ENCODING 100
SWIDTH 408 0
DWIDTH 11 0
BBX 8 16 2 0
BITMAP
01
01
01
01
01
01
3D
67
C3
81
81
81
81
C3
7F
11
ENDCHAR
STARTCHAR e
ENCODING 101
SWIDTH 387 0
DWIDTH 11 0
BBX 9 11 1 0
BITMAP
3800
7E00
C300
8100
8700
F800
8000
8100
C380
7E00
1800
ENDCHAR
STARTCHAR f
ENCODING 102
SWIDTH 314 0
DWIDTH 9 0
BBX 7 17 1 0
BITMAP
1C
36
22
20
20
20
20
FC
20
20
20
20
20
20
20
20
20
ENDCHAR
STARTCHAR g
ENCODING 103
SWIDTH 395 0
DWIDTH 10 0
BBX 8 17 1 -7
BITMAP
01
3F
43
81
81
81
81
43
3D
01
01
01
01
01
03
62
3C
ENDCHAR
STARTCHAR h
ENCODING 104
SWIDTH 408 0
DWIDTH 11 0
BBX 8 16 2 0
BITMAP
80
80
80
80
80
80
80
BC
E2
C1
81
81
81
81
81
81
ENDCHAR
STARTCHAR i
ENCODING 105
SWIDTH 175 0
DWIDTH 5 0
BBX 1 13 2 0
BITMAP
80
00
00
80
80
80
80
80
80
80
80
80
80
ENDCHAR
STARTCHAR j
ENCODING 106
SWIDTH 166 0
DWIDTH 5 0
BBX 6 20 -3 -7
BITMAP
04
00
00
00
04
04
04
04
04
04
04
04
04
04
04
04
04
84
CC
78
ENDCHAR
STARTCHAR k
ENCODING 107
SWIDTH 376 0
DWIDTH 11 0
BBX 9 17 1 0
BITMAP
8000
C000
C000
C000
C000
4000
4000
4200
4600
4C00
7800
6000
6000
7800
4E00
4380
4080
ENDCHAR
STARTCHAR l
ENCODING 108
SWIDTH 177 0
DWIDTH 5 0
BBX 1 16 2 0
BITMAP
80
80
80
80
80
80
80
80
80
80
80
80
80
80
80
80
ENDCHAR
STARTCHAR m
ENCODING 109
SWIDTH 623 0
DWIDTH 17 0
BBX 14 10 2 0
BITMAP
BC70
E2C8
E288
C184
C104
C104
C104
C104
C104
C100
ENDCHAR
STARTCHAR n
ENCODING 110
SWIDTH 399 0
DWIDTH 11 0
BBX 9 11 1 0
BITMAP
8000
BE00
E300
C100
8080
8080
8080
8080
8080
8080
8080
ENDCHAR
STARTCHAR o
ENCODING 111
SWIDTH 368 0
DWIDTH 10 0
BBX 8 8 1 1
BITMAP
3C
42
81
81
81
81
42
3C
ENDCHAR
STARTCHAR p
ENCODING 112
SWIDTH 392 0
DWIDTH 11 0
BBX 8 17 2 -7
BITMAP
80
BC
C2
83
81
81
81
83
C6
FC
80
80
80
80
80
80
80
ENDCHAR
STARTCHAR q
ENCODING 113
SWIDTH 388 0
DWIDTH 10 0
BBX 13 16 1 -6
BITMAP
0100
3F00
4300
8100
8100
8100
8100
4300
3D00
0100
0100
0100
0100
0188
0090
00F0
ENDCHAR
STARTCHAR r
ENCODING 114
SWIDTH 271 0
DWIDTH 8 0
BBX 5 10 2 0
BITMAP
80
F8
C8
80
80
80
80
80
80
80
ENDCHAR
STARTCHAR s
ENCODING 115
SWIDTH 328 0
DWIDTH 9 0
BBX 7 10 1 0
BITMAP
78
CC
80
80
70
1C
02
02
C6
7C
ENDCHAR
STARTCHAR t
ENCODING 116
SWIDTH 278 0
DWIDTH 8 0
BBX 7 16 0 0
BITMAP
10
10
10
10
10
10
FE
10
10
10
10
10
10
10
10
10
ENDCHAR
STARTCHAR u
ENCODING 117
SWIDTH 390 0
DWIDTH 10 0
BBX 8 9 1 0
BITMAP
81
81
81
81
81
83
83
47
3D
ENDCHAR
STARTCHAR v
ENCODING 118
SWIDTH 322 0
DWIDTH 9 0
BBX 7 10 1 0
BITMAP
82
82
C2
C6
44
64
2C
28
38
18
ENDCHAR
STARTCHAR w
ENCODING 119
SWIDTH 501 0
DWIDTH 14 0
BBX 12 10 1 0
BITMAP
8410
8610
8E10
CA30
CB30
5920
51A0
50E0
70E0
20C0
ENDCHAR
STARTCHAR x
ENCODING 120
SWIDTH 329 0
DWIDTH 9 0
BBX 8 11 1 -1
BITMAP
86
C4
6C
38
30
38
68
4C
C6
82
03
ENDCHAR
STARTCHAR y
ENCODING 121
SWIDTH 337 0
DWIDTH 9 0
BBX 9 16 0 -6
BITMAP
8080
4180
6100
2100
3300
1200
1A00
0E00
0C00
0C00
0C00
0C00
0800
1800
1800
1000
ENDCHAR
STARTCHAR z
ENCODING 122
SWIDTH 325 0
DWIDTH 9 0
BBX 8 10 1 0
BITMAP
FE
06
0C
18
18
30
60
40
C7
FF
ENDCHAR
STARTCHAR braceleft
ENCODING 123
SWIDTH 326 0
DWIDTH 9 0
BBX 9 17 0 0
BITMAP
1E00
3000
2000
2000
3000
3000
1000
1000
7000
F000
1000
1000
1000
1000
1000
1000
0F80
ENDCHAR
STARTCHAR bar
ENCODING 124
SWIDTH 177 0
DWIDTH 5 0
BBX 1 24 2 -4
BITMAP
80
80
80
80
80
80
80
80
80
80
80
80
80
80
80
80
80
80
80
80
80
80
80
80
ENDCHAR
STARTCHAR braceright
ENCODING 125
SWIDTH 315 0
DWIDTH 9 0
BBX 9 17 0 0
BITMAP
FC00
0400
0400
0400
0400
0400
0400
0600
0780
0600
0400
0400
0400
0400
0400
0C00
7800
ENDCHAR
STARTCHAR asciitilde
ENCODING 126
SWIDTH 344 0
DWIDTH 10 0
BBX 8 4 1 5
BITMAP
60
D1
8F
0E
ENDCHAR
STARTCHAR exclamdown
ENCODING 161
SWIDTH 170 0
DWIDTH 5 0
BBX 1 17 2 0
BITMAP
80
80
00
80
80
80
80
80
80
80
80
80
80
80
80
80
80
ENDCHAR
STARTCHAR cent
ENCODING 162
SWIDTH 369 0
DWIDTH 10 0
BBX 8 16 1 0
BITMAP
10
10
10
7C
56
92
90
90
90
91
53
7E
10
10
10
10
ENDCHAR
STARTCHAR sterling
ENCODING 163
SWIDTH 444 0
DWIDTH 12 0
BBX 11 16 0 0
BITMAP
07C0
0C60
1820
1000
1000
1000
1000
1000
7F80
1000
1000
1000
1000
1000
1000
FFE0
ENDCHAR
STARTCHAR currency
ENCODING 164
SWIDTH 407 0
DWIDTH 11 0
BBX 9 12 1 2
BITMAP
8180
FD80
4300
8080
8080
8080
8080
8080
4300
7F00
C180
8080
ENDCHAR
STARTCHAR yen
ENCODING 165
SWIDTH 386 0
DWIDTH 11 0
BBX 10 15 0 1
BITMAP
C040
60C0
2080
3180
1100
1B00
0A00
0E00
3F80
0400
0400
3F80
0400
0400
0400
ENDCHAR
STARTCHAR brokenbar
ENCODING 166
SWIDTH 177 0
DWIDTH 5 0
BBX 1 24 2 -4
BITMAP
80
80
80
80
80
80
80
80
80
80
00
00
00
00
80
80
80
80
80
80
80
80
80
80
ENDCHAR
STARTCHAR section
ENCODING 167
SWIDTH 328 0
DWIDTH 9 0
BBX 7 14 1 0
BITMAP
30
FC
84
80
E0
FC
86
82
72
1C
02
02
C6
7C
ENDCHAR
STARTCHAR dieresis
ENCODING 168
SWIDTH 164 0
DWIDTH 5 0
BBX 4 2 0 11
BITMAP
D0
90
ENDCHAR
STARTCHAR copyright
ENCODING 169
SWIDTH 564 0
DWIDTH 16 0
BBX 14 16 1 0
BITMAP
0FE0
38F0
2010
4308
4788
88C4
8844
8804
8804
8864
8CC4
8788
4008
2010
1020
0FC0
ENDCHAR
STARTCHAR logicalnot
ENCODING 172
SWIDTH 295 0
DWIDTH 8 0
BBX 7 4 0 5
BITMAP
FE
02
02
02
ENDCHAR
STARTCHAR registered
ENCODING 174
SWIDTH 564 0
DWIDTH 16 0
BBX 14 16 1 0
BITMAP
0FE0
38F0
2010
4F88
48E8
8864
89E4
8F84
8D84
88C4
8864
8828
4008
2010
1020
0FC0
ENDCHAR
STARTCHAR macron
ENCODING 175
SWIDTH 214 0
DWIDTH 6 0
BBX 6 1 0 12
BITMAP
FC
ENDCHAR
STARTCHAR degree
ENCODING 176
SWIDTH 252 0
DWIDTH 7 0
BBX 5 6 1 10
BITMAP
70
88
88
88
88
70
ENDCHAR
STARTCHAR plusminus
ENCODING 177
SWIDTH 331 0
DWIDTH 9 0
BBX 8 10 1 3
BITMAP
10
10
10
FE
10
10
10
10
00
FF
ENDCHAR
STARTCHAR acute
ENCODING 180
SWIDTH 168 0
DWIDTH 5 0
BBX 4 4 0 11
BITMAP
10
30
60
C0
ENDCHAR
STARTCHAR mu
ENCODING 181
SWIDTH 455 0
DWIDTH 13 0
BBX 10 13 1 -3
BITMAP
8040
8040
8040
80C0
C0C0
C0C0
E1C0
E340
9E40
8000
8000
8000
8000
ENDCHAR
STARTCHAR paragraph
ENCODING 182
SWIDTH 433 0
DWIDTH 12 0
BBX 10 17 1 0
BITMAP
1FC0
6480
8480
8480
8480
8480
8480
4480
6480
1C80
0480
0480
0480
0480
0480
0480
0400
ENDCHAR
STARTCHAR periodcentered
ENCODING 183
SWIDTH 89 0
DWIDTH 2 0
BBX 1 1 1 8
BITMAP
80
ENDCHAR
STARTCHAR cedilla
ENCODING 184
SWIDTH 183 0
DWIDTH 5 0
BBX 4 6 1 -5
BITMAP
80
80
E0
30
10
E0
ENDCHAR
STARTCHAR questiondown
ENCODING 191
SWIDTH 307 0
DWIDTH 8 0
BBX 7 17 1 0
BITMAP
08
08
00
08
08
08
08
08
38
60
80
80
80
80
80
62
3E
ENDCHAR
STARTCHAR Agrave
ENCODING 192
SWIDTH 442 0
DWIDTH 12 0
BBX 12 22 0 -1
BITMAP
0C00
0600
0300
0000
0600
0600
0600
0F00
0900
0900
1980
1880
1080
30C0
3040
3FC0
2060
6020
4020
4030
C010
8000
ENDCHAR
STARTCHAR Aacute
ENCODING 193
SWIDTH 442 0
DWIDTH 12 0
BBX 12 23 0 -1
BITMAP
0100
0300
0600
0C00
0000
0600
0600
0600
0F00
0900
0900
1980
1880
1080
30C0
3040
3FC0
2060
6020
4020
4030
C010
8000
ENDCHAR
STARTCHAR Acircumflex
ENCODING 194
SWIDTH 442 0
DWIDTH 12 0
BBX 12 23 0 -1
BITMAP
0400
0600
0B00
0900
1000
0600
0600
0600
0F00
0900
0900
1980
1880
1080
30C0
3040
3FC0
2060
6020
4020
4030
C010
8000
ENDCHAR
STARTCHAR Atilde
ENCODING 195
SWIDTH 442 0
DWIDTH 12 0
BBX 12 21 0 -1
BITMAP
0D80
1700
0300
0600
0600
0600
0F00
0900
0900
1980
1880
1080
30C0
3040
3FC0
2060
6020
4020
4030
C010
8000
ENDCHAR
STARTCHAR Adieresis
ENCODING 196
SWIDTH 442 0
DWIDTH 12 0
BBX 12 21 0 -1
BITMAP
0A00
0B00
0000
0600
0600
0600
0F00
0900
0900
1980
1880
1080
30C0
3040
3FC0
2060
6020
4020
4030
C010
8000
ENDCHAR
STARTCHAR Aring
ENCODING 197
SWIDTH 442 0
DWIDTH 12 0
BBX 12 22 0 -1
BITMAP
0E00
0900
0B00
0600
0600
0600
0600
0F00
0900
0900
1980
1880
1080
30C0
3040
3FC0
2060
6020
4020
4030
C010
8000
ENDCHAR
STARTCHAR AE
ENCODING 198
SWIDTH 703 0
DWIDTH 20 0
BBX 18 17 1 0
BITMAP
00FFC0
018000
018000
038000
038000
068000
048000
0C8000
0FFF80
188000
108000
308000
208000
608000
408000
C08000
80FFC0
ENDCHAR
STARTCHAR Ccedilla
ENCODING 199
SWIDTH 427 0
DWIDTH 12 0
BBX 10 21 1 -5
BITMAP
3E00
6300
4300
C100
8000
8000
8000
8000
8000
8000
8000
8040
40C0
4180
3700
1E00
0800
0C00
0300
0100
0E00
ENDCHAR
STARTCHAR Egrave
ENCODING 200
SWIDTH 445 0
DWIDTH 12 0
BBX 10 22 2 0
BITMAP
1000
1800
0C00
0600
0000
07C0
FFC0
8000
8000
8000
8000
8000
8000
FF80
8000
8000
8000
8000
8000
8000
8000
FFC0
ENDCHAR
STARTCHAR Eacute
ENCODING 201
SWIDTH 445 0
DWIDTH 12 0
BBX 10 22 2 0
BITMAP
0600
0C00
1800
1000
0000
07C0
FFC0
8000
8000
8000
8000
8000
8000
FF80
8000
8000
8000
8000
8000
8000
8000
FFC0
ENDCHAR
STARTCHAR Ecircumflex
ENCODING 202
SWIDTH 445 0
DWIDTH 12 0
BBX 10 22 2 0
BITMAP
0C00
1C00
1600
3200
0000
07C0
FFC0
8000
8000
8000
8000
8000
8000
FF80
8000
8000
8000
8000
8000
8000
8000
FFC0
ENDCHAR
STARTCHAR Edieresis
ENCODING 203
SWIDTH 445 0
DWIDTH 12 0
BBX 10 20 2 0
BITMAP
1600
0000
0000
07C0
FFC0
8000
8000
8000
8000
8000
8000
FF80
8000
8000
8000
8000
8000
8000
8000
FFC0
ENDCHAR
STARTCHAR Igrave
ENCODING 204
SWIDTH 368 0
DWIDTH 10 0
BBX 9 21 1 0
BITMAP
1000
1800
0C00
0400
0000
FF80
0800
0800
0800
0800
0800
0800
0800
0800
0800
0800
0800
0800
0800
0800
FF80
ENDCHAR
STARTCHAR Iacute
ENCODING 205
SWIDTH 368 0
DWIDTH 10 0
BBX 9 22 0 0
BITMAP
0200
0600
0C00
1800
1000
0000
FF80
0800
0800
0800
0800
0800
0800
0800
0800
0800
0800
0800
0800
0800
0800
FF80
ENDCHAR
STARTCHAR Icircumflex
ENCODING 206
SWIDTH 368 0
DWIDTH 10 0
BBX 9 22 0 0
BITMAP
0800
1C00
1400
3600
2200
0000
FF80
0800
0800
0800
0800
0800
0800
0800
0800
0800
0800
0800
0800
0800
0800
FF80
ENDCHAR
STARTCHAR Idieresis
ENCODING 207
SWIDTH 368 0
DWIDTH 10 0
BBX 9 20 0 0
BITMAP
0400
1200
0000
0000
FF80
0800
0800
0800
0800
0800
0800
0800
0800
0800
0800
0800
0800
0800
0800
FF80
ENDCHAR
STARTCHAR Eth
ENCODING 208
SWIDTH 502 0
DWIDTH 14 0
BBX 12 16 1 0
BITMAP
7C00
4300
40C0
4060
4020
4010
4010
FC10
4010
4010
4010
4020
4060
40C0
4300
7C00
ENDCHAR
STARTCHAR Ntilde
ENCODING 209
SWIDTH 475 0
DWIDTH 13 0
BBX 11 21 1 0
BITMAP
0D00
1700
0200
0000
8020
8020
C020
E020
B020
B020
9820
8C20
8C20
8620
8320
8320
81A0
80E0
80E0
8060
8020
ENDCHAR
STARTCHAR Ograve
ENCODING 210
SWIDTH 517 0
DWIDTH 14 0
BBX 12 21 1 0
BITMAP
0C00
0600
0300
0100
0000
1F80
39C0
6060
4020
8030
8010
8010
8010
8010
8010
8010
8010
4020
4020
30C0
0F00
ENDCHAR
STARTCHAR Oacute
ENCODING 211
SWIDTH 517 0
DWIDTH 14 0
BBX 12 22 1 0
BITMAP
0100
0300
0600
0C00
0800
0000
1F80
39C0
6060
4020
8030
8010
8010
8010
8010
8010
8010
8010
4020
4020
30C0
0F00
ENDCHAR
STARTCHAR Ocircumflex
ENCODING 212
SWIDTH 517 0
DWIDTH 14 0
BBX 12 22 1 0
BITMAP
0600
0600
0F00
0900
0900
0000
1F80
39C0
6060
4020
8030
8010
8010
8010
8010
8010
8010
8010
4020
4020
30C0
0F00
ENDCHAR
STARTCHAR Otilde
ENCODING 213
SWIDTH 517 0
DWIDTH 14 0
BBX 12 20 1 0
BITMAP
0C80
1B80
0300
0000
1F80
39C0
6060
4020
8030
8010
8010
8010
8010
8010
8010
8010
4020
4020
30C0
0F00
ENDCHAR
STARTCHAR Odieresis
ENCODING 214
SWIDTH 517 0
DWIDTH 14 0
BBX 12 20 1 0
BITMAP
0200
0900
0000
0000
1F80
39C0
6060
4020
8030
8010
8010
8010
8010
8010
8010
8010
4020
4020
30C0
0F00
ENDCHAR
STARTCHAR multiply
ENCODING 215
SWIDTH 272 0
DWIDTH 8 0
BBX 6 7 1 3
BITMAP
8C
D8
70
30
78
CC
84
ENDCHAR
STARTCHAR Oslash
ENCODING 216
SWIDTH 517 0
DWIDTH 14 0
BBX 12 17 1 -1
BITMAP
1F80
31C0
6160
4120
8330
8310
8210
8210
8610
8410
8410
8C10
4C20
6860
38C0
1F00
1000
ENDCHAR
STARTCHAR Ugrave
ENCODING 217
SWIDTH 496 0
DWIDTH 13 0
BBX 11 21 1 0
BITMAP
0C00
0600
0200
0100
0020
8020
8020
8020
8020
8020
8020
8020
8020
8020
8020
8020
8020
C040
4040
6080
1F00
ENDCHAR
STARTCHAR Uacute
ENCODING 218
SWIDTH 496 0
DWIDTH 13 0
BBX 11 22 1 0
BITMAP
0200
0300
0600
0C00
0800
0020
8020
8020
8020
8020
8020
8020
8020
8020
8020
8020
8020
8020
C040
4040
6080
1F00
ENDCHAR
STARTCHAR Ucircumflex
ENCODING 219
SWIDTH 496 0
DWIDTH 13 0
BBX 11 22 1 0
BITMAP
0400
0E00
0A00
1B00
1100
0020
8020
8020
8020
8020
8020
8020
8020
8020
8020
8020
8020
8020
C040
4040
6080
1F00
ENDCHAR
STARTCHAR Udieresis
ENCODING 220
SWIDTH 496 0
DWIDTH 13 0
BBX 11 20 1 0
BITMAP
0200
0B00
0000
0020
8020
8020
8020
8020
8020
8020
8020
8020
8020
8020
8020
8020
C040
4040
6080
1F00
ENDCHAR
STARTCHAR Yacute
ENCODING 221
SWIDTH 386 0
DWIDTH 11 0
BBX 9 22 1 0
BITMAP
0400
0C00
1800
3000
0000
8080
8080
C180
4100
6300
2200
3600
1400
1C00
0800
0800
0800
0800
0800
0800
0800
0800
ENDCHAR
STARTCHAR Thorn
ENCODING 222
SWIDTH 442 0
DWIDTH 12 0
BBX 10 16 1 0
BITMAP
8000
8000
8000
FE00
8180
8040
8040
8040
8040
8040
8180
FE00
8000
8000
8000
8000
ENDCHAR
STARTCHAR germandbls
ENCODING 223
SWIDTH 500 0
DWIDTH 14 0
BBX 12 18 1 -1
BITMAP
1C00
3700
4100
C180
8180
8100
8600
8C00
8800
9800
8C00
87C0
80E0
8030
8030
B060
BFC0
8000
ENDCHAR
STARTCHAR agrave
ENCODING 224
SWIDTH 366 0
DWIDTH 9 0
BBX 7 15 1 0
BITMAP
40
20
10
18
02
02
7E
46
82
82
82
82
4E
7E
02
ENDCHAR
STARTCHAR aacute
ENCODING 225
SWIDTH 366 0
DWIDTH 9 0
BBX 7 15 1 0
BITMAP
0C
18
30
20
02
02
7E
46
82
82
82
82
4E
7E
02
ENDCHAR
STARTCHAR acircumflex
ENCODING 226
SWIDTH 366 0
DWIDTH 9 0
BBX 7 15 1 0
BITMAP
30
30
68
4C
02
02
7E
46
82
82
82
82
4E
7E
02
ENDCHAR
STARTCHAR atilde
ENCODING 227
SWIDTH 366 0
DWIDTH 9 0
BBX 7 13 1 0
BITMAP
74
5C
02
3A
7E
C6
82
82
82
82
46
3A
02
ENDCHAR
STARTCHAR adieresis
ENCODING 228
SWIDTH 366 0
DWIDTH 9 0
BBX 7 13 1 0
BITMAP
28
4C
02
02
7E
46
82
82
82
82
4E
7E
02
ENDCHAR
STARTCHAR aring
ENCODING 229
SWIDTH 366 0
DWIDTH 9 0
BBX 7 15 1 -1
BITMAP
38
24
3C
38
02
3A
46
82
82
82
82
CE
7E
1A
02
ENDCHAR
STARTCHAR ae
ENCODING 230
SWIDTH 617 0
DWIDTH 17 0
BBX 15 11 1 0
BITMAP
0270
1BF8
7F0C
C604
821C
83E0
8200
8206
4F0C
3BF8
0260
ENDCHAR
STARTCHAR ccedilla
ENCODING 231
SWIDTH 369 0
DWIDTH 10 0
BBX 8 15 1 -5
BITMAP
78
44
86
80
80
80
80
C3
66
3C
10
1C
02
06
1C
ENDCHAR
STARTCHAR egrave
ENCODING 232
SWIDTH 387 0
DWIDTH 11 0
BBX 9 16 1 0
BITMAP
2000
3000
1800
0C00
0000
3800
7E00
C300
8100
8700
F800
8000
8100
C380
7E00
1800
ENDCHAR
STARTCHAR eacute
ENCODING 233
SWIDTH 387 0
DWIDTH 11 0
BBX 9 16 1 0
BITMAP
0C00
0800
1800
3000
2000
3800
7E00
C300
8100
8700
F800
8000
8100
C380
7E00
1800
ENDCHAR
STARTCHAR ecircumflex
ENCODING 234
SWIDTH 387 0
DWIDTH 11 0
BBX 9 16 1 0
BITMAP
1800
1800
2C00
2400
0000
3800
7E00
C300
8100
8700
F800
8000
8100
C380
7E00
1800
ENDCHAR
STARTCHAR edieresis
ENCODING 235
SWIDTH 387 0
DWIDTH 11 0
BBX 9 13 1 0
BITMAP
2C00
0000
3800
7E00
C300
8100
8700
F800
8000
8100
C380
7E00
1800
ENDCHAR
STARTCHAR igrave
ENCODING 236
SWIDTH 175 0
DWIDTH 5 0
BBX 3 15 1 0
BITMAP
80
C0
40
60
00
40
40
40
40
40
40
40
40
40
40
ENDCHAR
STARTCHAR iacute
ENCODING 237
SWIDTH 175 0
DWIDTH 5 0
BBX 4 15 0 0
BITMAP
10
30
60
C0
00
20
20
20
20
20
20
20
20
20
20
ENDCHAR
STARTCHAR icircumflex
ENCODING 238
SWIDTH 175 0
DWIDTH 5 0
BBX 5 15 0 0
BITMAP
20
70
50
C8
00
20
20
20
20
20
20
20
20
20
20
ENDCHAR
STARTCHAR idieresis
ENCODING 239
SWIDTH 175 0
DWIDTH 5 0
BBX 3 13 1 0
BITMAP
A0
A0
00
40
40
40
40
40
40
40
40
40
40
ENDCHAR
STARTCHAR eth
ENCODING 240
SWIDTH 329 0
DWIDTH 9 0
BBX 8 16 1 0
BITMAP
10
10
18
08
0D
0F
1C
06
06
3E
46
86
86
86
CE
38
ENDCHAR
STARTCHAR ntilde
ENCODING 241
SWIDTH 399 0
DWIDTH 11 0
BBX 9 14 1 0
BITMAP
3400
5C00
0C00
8000
BE00
E300
C100
8080
8080
8080
8080
8080
8080
8080
ENDCHAR
STARTCHAR ograve
ENCODING 242
SWIDTH 368 0
DWIDTH 10 0
BBX 8 13 1 1
BITMAP
30
18
0C
04
00
3C
42
81
81
81
81
42
3C
ENDCHAR
STARTCHAR oacute
ENCODING 243
SWIDTH 368 0
DWIDTH 10 0
BBX 8 14 1 1
BITMAP
10
18
30
60
40
00
3C
42
81
81
81
81
42
3C
ENDCHAR
STARTCHAR ocircumflex
ENCODING 244
SWIDTH 368 0
DWIDTH 10 0
BBX 8 14 1 1
BITMAP
10
18
3C
24
24
00
3C
42
81
81
81
81
42
3C
ENDCHAR
STARTCHAR otilde
ENCODING 245
SWIDTH 368 0
DWIDTH 10 0
BBX 8 12 1 1
BITMAP
34
5C
0C
00
3C
42
81
81
81
81
42
3C
ENDCHAR
STARTCHAR odieresis
ENCODING 246
SWIDTH 368 0
DWIDTH 10 0
BBX 8 11 1 1
BITMAP
2C
00
00
3C
42
81
81
81
81
42
3C
ENDCHAR
STARTCHAR divide
ENCODING 247
SWIDTH 311 0
DWIDTH 9 0
BBX 8 6 0 4
BITMAP
08
00
00
FF
00
08
ENDCHAR
STARTCHAR oslash
ENCODING 248
SWIDTH 367 0
DWIDTH 10 0
BBX 8 12 1 -1
BITMAP
04
04
3C
4E
99
99
99
91
72
3C
30
20
ENDCHAR
STARTCHAR ugrave
ENCODING 249
SWIDTH 390 0
DWIDTH 10 0
BBX 8 15 1 0
BITMAP
20
10
18
0C
00
00
81
81
81
81
81
83
83
47
3D
ENDCHAR
STARTCHAR uacute
ENCODING 250
SWIDTH 390 0
DWIDTH 10 0
BBX 8 15 1 0
BITMAP
04
0C
18
30
00
00
81
81
81
81
81
83
83
47
3D
ENDCHAR
STARTCHAR ucircumflex
ENCODING 251
SWIDTH 390 0
DWIDTH 10 0
BBX 8 15 1 0
BITMAP
10
38
2C
64
00
00
81
81
81
81
81
83
83
47
3D
ENDCHAR
STARTCHAR udieresis
ENCODING 252
SWIDTH 390 0
DWIDTH 10 0
BBX 8 13 1 0
BITMAP
34
24
00
00
81
81
81
81
81
83
83
47
3D
ENDCHAR
STARTCHAR yacute
ENCODING 253
SWIDTH 337 0
DWIDTH 9 0
BBX 9 21 0 -6
BITMAP
0600
0C00
1800
1000
0000
8080
4180
6100
2100
3300
1200
1A00
0E00
0C00
0C00
0C00
0C00
0800
1800
1800
1000
ENDCHAR
STARTCHAR thorn
ENCODING 254
SWIDTH 348 0
DWIDTH 10 0
BBX 7 21 2 -4
BITMAP
80
80
80
80
80
80
80
90
FC
E6
C2
C2
C2
C2
E4
FC
80
80
80
80
80
ENDCHAR
STARTCHAR ydieresis
ENCODING 255
SWIDTH 337 0
DWIDTH 9 0
BBX 9 19 0 -6
BITMAP
1600
0000
0000
8080
4180
6100
2100
3300
1200
1A00
0E00
0C00
0C00
0C00
0C00
0800
1800
1800
1000
ENDCHAR
STARTCHAR Amacron
ENCODING 256
SWIDTH 442 0
DWIDTH 12 0
BBX 12 21 0 -1
BITMAP
1F80
0000
0000
0600
0600
0600
0F00
0900
0900
1980
1880
1080
30C0
3040
3FC0
2060
6020
4020
4030
C010
8000
ENDCHAR
STARTCHAR amacron
ENCODING 257
SWIDTH 366 0
DWIDTH 9 0
BBX 7 13 1 0
BITMAP
7C
00
02
3A
7E
C6
82
82
82
82
4E
3A
02
ENDCHAR
STARTCHAR Abreve
ENCODING 258
SWIDTH 442 0
DWIDTH 12 0
BBX 12 22 0 -1
BITMAP
1900
1900
0F00
0000
0600
0600
0600
0F00
0900
0900
1980
1880
1080
30C0
3040
3FC0
2060
6020
4020
4030
C010
8000
ENDCHAR
STARTCHAR abreve
ENCODING 259
SWIDTH 366 0
DWIDTH 9 0
BBX 7 14 1 0
BITMAP
44
64
38
02
02
7E
46
82
82
82
82
4E
7E
02
ENDCHAR
STARTCHAR Aogonek
ENCODING 260
SWIDTH 442 0
DWIDTH 12 0
BBX 13 21 0 -4
BITMAP
0600
0600
0600
0F00
0900
0900
1980
1880
1080
30C0
3040
3FC0
2060
6020
4020
4030
C010
8030
0040
0078
0030
ENDCHAR
STARTCHAR aogonek
ENCODING 261
SWIDTH 366 0
DWIDTH 10 0
BBX 8 15 1 -4
BITMAP
02
02
7E
46
82
82
82
82
4E
7E
02
06
0C
08
07
ENDCHAR
STARTCHAR Cacute
ENCODING 262
SWIDTH 427 0
DWIDTH 12 0
BBX 10 22 1 0
BITMAP
0400
0600
0C00
1800
1000
0000
1C00
7600
4300
C100
8100
8000
8000
8000
8000
8000
8000
8080
C0C0
4080
6380
3E00
ENDCHAR
STARTCHAR cacute
ENCODING 263
SWIDTH 369 0
DWIDTH 10 0
BBX 8 16 1 0
BITMAP
08
18
30
20
40
00
38
7C
C6
82
80
80
80
81
C3
7C
ENDCHAR
STARTCHAR Ccircumflex
ENCODING 264
SWIDTH 427 0
DWIDTH 12 0
BBX 10 22 1 0
BITMAP
0800
1C00
1400
1600
2200
0000
1C00
7600
4300
C100
8100
8000
8000
8000
8000
8000
8000
8080
C0C0
4080
6380
3E00
ENDCHAR
STARTCHAR ccircumflex
ENCODING 265
SWIDTH 369 0
DWIDTH 10 0
BBX 8 16 1 0
BITMAP
10
18
28
24
44
00
38
7C
C6
82
80
80
80
81
C3
7C
ENDCHAR
STARTCHAR Cdotaccent
ENCODING 266
SWIDTH 427 0
DWIDTH 12 0
BBX 10 19 1 0
BITMAP
0800
0000
0000
1C00
7600
4300
C100
8100
8000
8000
8000
8000
8000
8000
8080
C0C0
4080
6380
3E00
ENDCHAR
STARTCHAR cdotaccent
ENCODING 267
SWIDTH 369 0
DWIDTH 10 0
BBX 8 13 1 0
BITMAP
10
10
00
38
7C
C6
82
80
80
80
81
C3
7C
ENDCHAR
STARTCHAR Ccaron
ENCODING 268
SWIDTH 427 0
DWIDTH 12 0
BBX 10 22 1 0
BITMAP
3200
1200
1E00
0C00
0800
0000
1C00
7600
4300
C100
8100
8000
8000
8000
8000
8000
8000
8080
C0C0
4080
6380
3E00
ENDCHAR
STARTCHAR ccaron
ENCODING 269
SWIDTH 369 0
DWIDTH 10 0
BBX 8 16 1 0
BITMAP
44
2C
28
38
10
00
38
7C
C6
82
80
80
80
81
C3
7C
ENDCHAR
STARTCHAR Dcaron
ENCODING 270
SWIDTH 492 0
DWIDTH 14 0
BBX 12 22 1 0
BITMAP
4400
2C00
2800
1000
0000
0000
F800
8700
8180
8040
8020
8010
8010
8010
8010
8010
8010
8020
8060
8080
8700
F800
ENDCHAR
STARTCHAR dcaron
ENCODING 271
SWIDTH 517 0
DWIDTH 14 0
BBX 12 16 2 0
BITMAP
0100
0120
0130
0110
0110
0110
3D30
6720
C300
8100
8100
8100
8100
C300
7F00
1100
ENDCHAR
STARTCHAR Dcroat
ENCODING 272
SWIDTH 502 0
DWIDTH 14 0
BBX 12 16 1 0
BITMAP
7C00
4300
40C0
4060
4020
4010
4010
FC10
4010
4010
4010
4020
4060
40C0
4300
7C00
ENDCHAR
STARTCHAR dcroat
ENCODING 273
SWIDTH 436 0
DWIDTH 12 0
BBX 10 16 2 0
BITMAP
0100
0100
0100
07C0
0100
0100
3D00
6700
C300
8100
8100
8100
8100
C300
7F00
0100
ENDCHAR
STARTCHAR Emacron
ENCODING 274
SWIDTH 445 0
DWIDTH 12 0
BBX 10 20 2 0
BITMAP
3E00
0000
0000
07C0
FFC0
8000
8000
8000
8000
8000
8000
FF80
8000
8000
8000
8000
8000
8000
8000
FFC0
ENDCHAR
STARTCHAR emacron
ENCODING 275
SWIDTH 387 0
DWIDTH 11 0
BBX 9 13 1 0
BITMAP
7E00
0000
3800
7E00
C300
8100
8700
F800
8000
8100
C380
7E00
1800
ENDCHAR
STARTCHAR Ebreve
ENCODING 276
SWIDTH 445 0
DWIDTH 12 0
BBX 10 22 2 0
BITMAP
0200
3200
3200
1C00
0000
07C0
FFC0
8000
8000
8000
8000
8000
8000
FF80
8000
8000
8000
8000
8000
8000
8000
FFC0
ENDCHAR
STARTCHAR ebreve
ENCODING 277
SWIDTH 387 0
DWIDTH 11 0
BBX 9 15 1 0
BITMAP
4200
6600
7E00
1800
3800
7E00
C300
8100
8700
F800
8000
8100
C380
7E00
1800
ENDCHAR
STARTCHAR Edotaccent
ENCODING 278
SWIDTH 445 0
DWIDTH 12 0
BBX 10 20 2 0
BITMAP
0800
0000
0000
07C0
FFC0
8000
8000
8000
8000
8000
8000
FF80
8000
8000
8000
8000
8000
8000
8000
FFC0
ENDCHAR
STARTCHAR edotaccent
ENCODING 279
SWIDTH 387 0
DWIDTH 11 0
BBX 9 13 1 0
BITMAP
1800
0000
3800
7E00
C300
8100
8700
F800
8000
8100
C380
7E00
1800
ENDCHAR
STARTCHAR Eogonek
ENCODING 280
SWIDTH 445 0
DWIDTH 12 0
BBX 10 20 2 -3
BITMAP
07C0
FFC0
8000
8000
8000
8000
8000
8000
FF80
8000
8000
8000
8000
8000
8000
8000
FFC0
1800
1000
1E00
ENDCHAR
STARTCHAR eogonek
ENCODING 281
SWIDTH 387 0
DWIDTH 11 0
BBX 9 14 1 -3
BITMAP
3800
7E00
C300
8100
8700
F800
8000
8100
C380
6E00
3C00
1000
1000
1E00
ENDCHAR
STARTCHAR Ecaron
ENCODING 282
SWIDTH 445 0
DWIDTH 12 0
BBX 10 22 2 0
BITMAP
3200
1600
1C00
0800
0000
07C0
FFC0
8000
8000
8000
8000
8000
8000
FF80
8000
8000
8000
8000
8000
8000
8000
FFC0
ENDCHAR
STARTCHAR ecaron
ENCODING 283
SWIDTH 387 0
DWIDTH 11 0
BBX 9 16 1 0
BITMAP
2400
2400
3C00
1800
1000
3800
7E00
C300
8100
8700
F800
8000
8100
C380
7E00
1800
ENDCHAR
STARTCHAR Gcircumflex
ENCODING 284
SWIDTH 488 0
DWIDTH 13 0
BBX 11 22 1 0
BITMAP
0400
0E00
0A00
1B00
0000
0F00
3180
40C0
4040
8000
8000
8000
8000
8FE0
8020
8020
8020
C060
4040
20C0
3080
1F00
ENDCHAR
STARTCHAR gcircumflex
ENCODING 285
SWIDTH 395 0
DWIDTH 10 0
BBX 8 22 1 -7
BITMAP
10
18
2C
24
44
01
3F
43
81
81
81
81
43
3D
01
01
01
01
01
03
62
3C
ENDCHAR
STARTCHAR Gbreve
ENCODING 286
SWIDTH 488 0
DWIDTH 13 0
BBX 11 21 1 0
BITMAP
1100
1900
0F00
0000
0F00
3180
40C0
4040
8000
8000
8000
8000
8FE0
8020
8020
8020
C060
4040
20C0
3080
1F00
ENDCHAR
STARTCHAR gbreve
ENCODING 287
SWIDTH 395 0
DWIDTH 10 0
BBX 8 21 1 -7
BITMAP
22
22
3E
08
01
3F
43
81
81
81
81
43
3D
01
01
01
01
01
03
42
3C
ENDCHAR
STARTCHAR Gdotaccent
ENCODING 288
SWIDTH 488 0
DWIDTH 13 0
BBX 11 19 1 0
BITMAP
0600
0000
0F00
3180
40C0
4040
8000
8000
8000
8000
8FE0
8020
8020
8020
C060
4040
20C0
3080
1F00
ENDCHAR
STARTCHAR gdotaccent
ENCODING 289
SWIDTH 395 0
DWIDTH 10 0
BBX 8 19 1 -7
BITMAP
18
00
01
3F
43
81
81
81
81
43
3D
01
01
01
01
01
03
62
3C
ENDCHAR
STARTCHAR Gcommaaccent
ENCODING 290
SWIDTH 488 0
DWIDTH 13 0
BBX 11 23 1 -6
BITMAP
0F00
3180
40C0
4040
8000
8000
8000
8000
8FE0
8020
8020
8020
C060
4040
20C0
3080
1F00
0000
0400
0600
0200
0200
0400
ENDCHAR
STARTCHAR gcommaaccent
ENCODING 291
SWIDTH 395 0
DWIDTH 10 0
BBX 8 22 1 -7
BITMAP
08
10
10
10
08
01
3F
43
81
81
81
81
43
3D
01
01
01
01
01
03
62
3C
ENDCHAR
STARTCHAR Hcircumflex
ENCODING 292
SWIDTH 502 0
DWIDTH 13 0
BBX 10 22 2 0
BITMAP
0800
0C00
1E00
1200
1200
8000
8040
8040
8040
8040
8040
8040
8040
FFC0
8040
8040
8040
8040
8040
8040
8040
8040
ENDCHAR
STARTCHAR hcircumflex
ENCODING 293
SWIDTH 408 0
DWIDTH 11 0
BBX 8 16 2 0
BITMAP
80
88
9C
94
A6
80
80
BC
E2
C1
81
81
81
81
81
81
ENDCHAR
STARTCHAR Hbar
ENCODING 294
SWIDTH 519 0
DWIDTH 14 0
BBX 12 16 1 0
BITMAP
4020
4020
4020
4020
FFF0
4020
4020
7FE0
4020
4020
4020
4020
4020
4020
4020
4020
ENDCHAR
STARTCHAR hbar
ENCODING 295
SWIDTH 418 0
DWIDTH 11 0
BBX 9 16 1 0
BITMAP
4000
4000
4000
4000
F800
4000
4000
5E00
7100
6080
4080
4080
4080
4080
4080
4080
ENDCHAR
STARTCHAR Itilde
ENCODING 296
SWIDTH 368 0
DWIDTH 10 0
BBX 9 20 0 0
BITMAP
1900
3700
0600
0000
FF80
0800
0800
0800
0800
0800
0800
0800
0800
0800
0800
0800
0800
0800
0800
FF80
ENDCHAR
STARTCHAR itilde
ENCODING 297
SWIDTH 175 0
DWIDTH 5 0
BBX 5 13 0 0
BITMAP
E8
B8
10
20
20
20
20
20
20
20
20
20
20
ENDCHAR
STARTCHAR Imacron
ENCODING 298
SWIDTH 368 0
DWIDTH 10 0
BBX 9 20 0 0
BITMAP
3F00
0000
0000
0000
FF80
0800
0800
0800
0800
0800
0800
0800
0800
0800
0800
0800
0800
0800
0800
FF80
ENDCHAR
STARTCHAR imacron
ENCODING 299
SWIDTH 175 0
DWIDTH 5 0
BBX 5 13 0 0
BITMAP
F8
00
00
20
20
20
20
20
20
20
20
20
20
ENDCHAR
STARTCHAR Ibreve
ENCODING 300
SWIDTH 368 0
DWIDTH 10 0
BBX 9 21 1 0
BITMAP
2600
6600
3C00
1000
0000
FF80
1800
1800
1800
1800
1800
1800
1800
1800
1800
1800
1800
1800
1800
1800
FF80
ENDCHAR
STARTCHAR ibreve
ENCODING 301
SWIDTH 175 0
DWIDTH 6 0
BBX 5 14 0 0
BITMAP
88
98
70
00
20
20
20
20
20
20
20
20
20
20
ENDCHAR
STARTCHAR Iogonek
ENCODING 302
SWIDTH 368 0
DWIDTH 10 0
BBX 9 19 0 -3
BITMAP
FF80
0800
0800
0800
0800
0800
0800
0800
0800
0800
0800
0800
0800
0800
0800
FF80
1800
1000
1E00
ENDCHAR
STARTCHAR iogonek
ENCODING 303
SWIDTH 175 0
DWIDTH 5 0
BBX 4 17 0 -4
BITMAP
20
00
00
20
20
20
20
20
20
20
20
20
20
60
C0
F0
60
ENDCHAR
STARTCHAR Idotaccent
ENCODING 304
SWIDTH 368 0
DWIDTH 10 0
BBX 9 19 0 0
BITMAP
0800
0000
0000
FF80
0800
0800
0800
0800
0800
0800
0800
0800
0800
0800
0800
0800
0800
0800
FF80
ENDCHAR
STARTCHAR dotlessi
ENCODING 305
SWIDTH 175 0
DWIDTH 5 0
BBX 1 10 2 0
BITMAP
80
80
80
80
80
80
80
80
80
80
ENDCHAR
STARTCHAR IJ
ENCODING 306
SWIDTH 767 0
DWIDTH 22 0
BBX 20 17 0 0
BITMAP
000010
FF8010
080010
080010
080010
080010
080010
080010
080010
080010
080010
080010
080010
081810
080830
080C20
FF83C0
ENDCHAR
STARTCHAR ij
ENCODING 307
SWIDTH 341 0
DWIDTH 10 0
BBX 7 20 1 -7
BITMAP
42
00
00
40
42
42
42
42
42
42
42
42
42
02
02
02
02
42
C6
3C
ENDCHAR
STARTCHAR Jcircumflex
ENCODING 308
SWIDTH 395 0
DWIDTH 11 0
BBX 11 22 0 0
BITMAP
0080
01C0
0140
0160
0220
0080
0080
0080
0080
0080
0080
0080
0080
0080
0080
0080
0080
0080
C080
4180
6100
1E00
ENDCHAR
STARTCHAR jcircumflex
ENCODING 309
SWIDTH 166 0
DWIDTH 5 0
BBX 8 22 -3 -7
BITMAP
04
0E
0A
19
00
00
04
04
04
04
04
04
04
04
04
04
04
04
04
84
CC
78
ENDCHAR
STARTCHAR Kcommaaccent
ENCODING 310
SWIDTH 440 0
DWIDTH 12 0
BBX 10 21 2 -5
BITMAP
8300
8600
8C00
9800
B000
A000
C000
C000
C000
F000
9800
8C00
8600
8380
80C0
8040
1000
1800
0800
0800
1800
ENDCHAR
STARTCHAR kcommaaccent
ENCODING 311
SWIDTH 376 0
DWIDTH 11 0
BBX 9 22 1 -5
BITMAP
8000
C000
C000
C000
C000
4000
4000
4200
4600
4C00
7800
6000
6000
7800
4E00
4380
4080
0800
0C00
0400
0C00
0800
ENDCHAR
STARTCHAR kgreenlandic
ENCODING 312
SWIDTH 373 0
DWIDTH 10 0
BBX 9 11 1 0
BITMAP
8000
C200
C600
CC00
7000
6000
6000
7800
4E00
4380
4080
ENDCHAR
STARTCHAR Lacute
ENCODING 313
SWIDTH 388 0
DWIDTH 11 0
BBX 11 22 0 0
BITMAP
1000
3000
6000
C000
8000
0000
2000
2000
2000
2000
2000
2000
2000
2000
2000
2000
2000
2000
2000
2000
2000
3FE0
ENDCHAR
STARTCHAR lacute
ENCODING 314
SWIDTH 177 0
DWIDTH 5 0
BBX 4 21 0 0
BITMAP
30
60
40
80
00
20
20
20
20
20
20
20
20
20
20
20
20
20
20
20
20
ENDCHAR
STARTCHAR Lcommaaccent
ENCODING 315
SWIDTH 388 0
DWIDTH 11 0
BBX 9 22 2 -6
BITMAP
8000
8000
8000
8000
8000
8000
8000
8000
8000
8000
8000
8000
8000
8000
8000
FF80
0000
1000
1800
0800
1800
1000
ENDCHAR
STARTCHAR lcommaaccent
ENCODING 316
SWIDTH 177 0
DWIDTH 5 0
BBX 2 22 2 -6
BITMAP
80
80
80
80
80
80
80
80
80
80
80
80
80
80
80
80
00
80
C0
40
C0
80
ENDCHAR
STARTCHAR Lcaron
ENCODING 317
SWIDTH 388 0
DWIDTH 11 0
BBX 11 22 0 0
BITMAP
C800
5800
5000
3000
0000
0000
2000
2000
2000
2000
2000
2000
2000
2000
2000
2000
2000
2000
2000
2000
2000
3FE0
ENDCHAR
STARTCHAR lcaron
ENCODING 318
SWIDTH 278 0
DWIDTH 8 0
BBX 6 16 2 0
BITMAP
80
90
88
88
8C
88
98
90
80
80
80
80
80
80
80
80
ENDCHAR
STARTCHAR Ldot
ENCODING 319
SWIDTH 388 0
DWIDTH 11 0
BBX 9 16 2 0
BITMAP
8000
8000
8000
8000
8000
8000
8000
8800
8000
8000
8000
8000
8000
8000
8000
FF80
ENDCHAR
STARTCHAR ldot
ENCODING 320
SWIDTH 216 0
DWIDTH 6 0
BBX 4 16 2 0
BITMAP
80
80
80
80
80
80
80
B0
80
80
80
80
80
80
80
80
ENDCHAR
STARTCHAR Lslash
ENCODING 321
SWIDTH 423 0
DWIDTH 12 0
BBX 11 16 1 0
BITMAP
2000
2000
2000
2000
2000
2000
2000
2000
2000
3C00
3000
E000
A000
2000
2000
3FE0
ENDCHAR
STARTCHAR lslash
ENCODING 322
SWIDTH 239 0
DWIDTH 7 0
BBX 5 16 1 0
BITMAP
20
20
20
20
20
20
20
20
28
38
60
E0
20
20
20
20
ENDCHAR
STARTCHAR Nacute
ENCODING 323
SWIDTH 475 0
DWIDTH 13 0
BBX 11 22 1 0
BITMAP
0300
0600
0C00
0800
0000
8020
8020
C020
E020
B020
B020
9820
8C20
8C20
8620
8320
8320
81A0
80E0
80E0
8060
8020
ENDCHAR
STARTCHAR nacute
ENCODING 324
SWIDTH 399 0
DWIDTH 11 0
BBX 9 15 1 0
BITMAP
0600
0C00
1800
3000
8000
BE00
E300
C100
8080
8080
8080
8080
8080
8080
8080
ENDCHAR
STARTCHAR Ncommaaccent
ENCODING 325
SWIDTH 475 0
DWIDTH 13 0
BBX 11 23 1 -6
BITMAP
8020
8020
C020
E020
B020
B020
9820
8C20
8C20
8620
8320
8320
81A0
80E0
80E0
8060
8020
0000
0400
0600
0200
0600
0400
ENDCHAR
STARTCHAR ncommaaccent
ENCODING 326
SWIDTH 399 0
DWIDTH 11 0
BBX 9 17 1 -6
BITMAP
8000
BE00
E300
C100
8080
8080
8080
8080
8080
8080
8080
0000
0C00
0400
0400
0C00
0800
ENDCHAR
STARTCHAR Ncaron
ENCODING 327
SWIDTH 475 0
DWIDTH 13 0
BBX 11 22 1 0
BITMAP
1100
0900
0A00
0600
0400
8020
8020
C020
E020
B020
B020
9820
8C20
8C20
8620
8320
8320
81A0
80E0
80E0
8060
8020
ENDCHAR
STARTCHAR ncaron
ENCODING 328
SWIDTH 399 0
DWIDTH 11 0
BBX 9 15 1 0
BITMAP
6200
6400
3C00
1800
8000
BE00
E300
C100
8080
8080
8080
8080
8080
8080
8080
ENDCHAR
STARTCHAR napostrophe
ENCODING 329
SWIDTH 494 0
DWIDTH 13 0
BBX 12 14 0 0
BITMAP
8000
4000
4000
6800
4BC0
4E20
8C20
0810
0810
0810
0810
0810
0810
0810
ENDCHAR
STARTCHAR Eng
ENCODING 330
SWIDTH 477 0
DWIDTH 13 0
BBX 11 23 1 -6
BITMAP
8020
C020
C020
E020
B020
B020
9820
8C20
8420
8620
8320
81A0
81A0
80E0
8060
8060
8020
0020
0020
6060
6040
30C0
0F80
ENDCHAR
STARTCHAR eng
ENCODING 331
SWIDTH 401 0
DWIDTH 11 0
BBX 8 18 2 -7
BITMAP
80
BC
C6
C2
81
81
81
81
81
81
81
01
01
01
01
42
62
3C
ENDCHAR
STARTCHAR Omacron
ENCODING 332
SWIDTH 517 0
DWIDTH 14 0
BBX 12 20 1 0
BITMAP
0F80
0000
0000
0000
1F80
39C0
6060
4020
8030
8010
8010
8010
8010
8010
8010
8010
4020
4020
30C0
0F00
ENDCHAR
STARTCHAR omacron
ENCODING 333
SWIDTH 368 0
DWIDTH 10 0
BBX 8 12 1 1
BITMAP
7E
00
00
00
3C
42
81
81
81
81
42
3C
ENDCHAR
STARTCHAR Obreve
ENCODING 334
SWIDTH 517 0
DWIDTH 14 0
BBX 12 21 1 0
BITMAP
0980
0980
0F00
0600
0000
1F80
39C0
6060
4020
8030
8010
8010
8010
8010
8010
8010
8020
4020
4040
30C0
0F00
ENDCHAR
STARTCHAR obreve
ENCODING 335
SWIDTH 368 0
DWIDTH 10 0
BBX 8 13 1 1
BITMAP
44
44
7C
10
00
3C
42
81
81
81
81
42
3C
ENDCHAR
STARTCHAR Ohungarumlaut
ENCODING 336
SWIDTH 517 0
DWIDTH 14 0
BBX 12 22 1 0
BITMAP
0580
0D80
0D00
0900
0B00
0000
1F80
39C0
6060
4020
8030
8010
8010
8010
8010
8010
8010
8010
4020
4020
30C0
0F00
ENDCHAR
STARTCHAR ohungarumlaut
ENCODING 337
SWIDTH 368 0
DWIDTH 10 0
BBX 8 14 1 1
BITMAP
16
34
34
2C
2C
00
3C
42
81
81
81
81
42
3C
ENDCHAR
STARTCHAR OE
ENCODING 338
SWIDTH 733 0
DWIDTH 21 0
BBX 18 17 1 0
BITMAP
0007C0
0FFFC0
318000
208000
408000
808000
808000
808000
80FF80
808000
808000
808000
808000
408000
408000
308000
1FFFC0
ENDCHAR
STARTCHAR oe
ENCODING 339
SWIDTH 609 0
DWIDTH 17 0
BBX 15 10 1 0
BITMAP
00F8
3D0C
4206
821E
83F0
8200
8306
430C
3CF8
0040
ENDCHAR
STARTCHAR Racute
ENCODING 340
SWIDTH 470 0
DWIDTH 13 0
BBX 10 22 2 0
BITMAP
0800
1800
3000
6000
0000
0000
FE00
8100
8080
8080
8080
8080
8080
8300
FE00
8600
8200
8300
8100
8180
80C0
8040
ENDCHAR
STARTCHAR racute
ENCODING 341
SWIDTH 271 0
DWIDTH 8 0
BBX 5 15 2 0
BITMAP
10
30
60
C0
00
80
F8
C8
80
80
80
80
80
80
80
ENDCHAR
STARTCHAR Rcommaaccent
ENCODING 342
SWIDTH 470 0
DWIDTH 13 0
BBX 10 22 2 -6
BITMAP
FE00
8100
8080
8080
8080
8080
8080
8300
FE00
8600
8200
8300
8100
8180
80C0
8040
0000
0800
0800
0C00
0C00
1800
ENDCHAR
STARTCHAR rcommaaccent
ENCODING 343
SWIDTH 271 0
DWIDTH 8 0
BBX 6 16 1 -6
BITMAP
40
7C
64
40
40
40
40
40
40
40
00
80
40
40
40
C0
ENDCHAR
STARTCHAR Rcaron
ENCODING 344
SWIDTH 470 0
DWIDTH 13 0
BBX 10 22 2 0
BITMAP
2400
2400
3C00
1800
1800
0000
FE00
8100
8080
8080
8080
8080
8080
8300
FE00
8600
8200
8300
8100
8180
80C0
8040
ENDCHAR
STARTCHAR rcaron
ENCODING 345
SWIDTH 271 0
DWIDTH 8 0
BBX 5 15 2 0
BITMAP
C8
58
70
30
00
80
F8
C8
80
80
80
80
80
80
80
ENDCHAR
STARTCHAR Sacute
ENCODING 346
SWIDTH 469 0
DWIDTH 13 0
BBX 11 22 1 0
BITMAP
0200
0600
0C00
1800
0000
0600
3F80
40C0
8000
8000
8000
8000
6000
3E00
0780
0060
0020
0020
0020
8060
F1C0
3F00
ENDCHAR
STARTCHAR sacute
ENCODING 347
SWIDTH 328 0
DWIDTH 9 0
BBX 7 15 1 0
BITMAP
18
30
20
40
00
78
CC
80
80
70
1C
02
02
C6
7C
ENDCHAR
STARTCHAR Scircumflex
ENCODING 348
SWIDTH 469 0
DWIDTH 13 0
BBX 11 22 1 0
BITMAP
0400
0C00
0E00
1200
1300
0600
3F80
40C0
8000
8000
8000
8000
6000
3E00
0780
0060
0020
0020
0020
8060
F1C0
3F00
ENDCHAR
STARTCHAR scircumflex
ENCODING 349
SWIDTH 328 0
DWIDTH 9 0
BBX 7 15 1 0
BITMAP
30
38
68
4C
00
78
CC
80
80
70
1C
02
02
C6
7C
ENDCHAR
STARTCHAR Scedilla
ENCODING 350
SWIDTH 469 0
DWIDTH 13 0
BBX 11 22 1 -5
BITMAP
0C00
7F80
C0C0
8000
8000
8000
8000
6000
3E00
0780
0040
0020
0020
0020
4060
F1C0
3F00
0400
0600
0380
0080
0700
ENDCHAR
STARTCHAR scedilla
ENCODING 351
SWIDTH 328 0
DWIDTH 9 0
BBX 7 15 1 -5
BITMAP
78
CC
80
80
70
1C
02
02
C6
7C
10
18
06
02
1C
ENDCHAR
STARTCHAR Scaron
ENCODING 352
SWIDTH 469 0
DWIDTH 13 0
BBX 11 22 1 0
BITMAP
1200
1300
0A00
0C00
0400
0600
3F80
40C0
8000
8000
8000
8000
6000
3E00
0780
0060
0020
0020
0020
8060
F1C0
3F00
ENDCHAR
STARTCHAR scaron
ENCODING 353
SWIDTH 328 0
DWIDTH 9 0
BBX 7 15 1 0
BITMAP
44
68
38
30
00
78
CC
80
80
70
1C
02
02
C6
7C
ENDCHAR
STARTCHAR Tcommaaccent
ENCODING 354
SWIDTH 381 0
DWIDTH 11 0
BBX 9 22 1 -6
BITMAP
FF80
0800
0800
0800
0800
0800
0800
0800
0800
0800
0800
0800
0800
0800
0800
0800
0000
0800
0C00
0400
0C00
0800
ENDCHAR
STARTCHAR tcommaaccent
ENCODING 355
SWIDTH 278 0
DWIDTH 8 0
BBX 7 22 0 -6
BITMAP
10
10
10
10
10
10
FE
10
10
10
10
10
10
10
10
10
00
10
18
08
18
10
ENDCHAR
STARTCHAR Tcaron
ENCODING 356
SWIDTH 381 0
DWIDTH 11 0
BBX 9 22 1 0
BITMAP
2200
1600
1400
0C00
0800
0000
FF80
0800
0800
0800
0800
0800
0800
0800
0800
0800
0800
0800
0800
0800
0800
0800
ENDCHAR
STARTCHAR tcaron
ENCODING 357
SWIDTH 394 0
DWIDTH 11 0
BBX 11 16 0 0
BITMAP
1000
1040
10C0
1060
1060
1060
FE40
1080
1000
1000
1000
1000
1000
1000
1000
1000
ENDCHAR
STARTCHAR Tbar
ENCODING 358
SWIDTH 381 0
DWIDTH 11 0
BBX 9 16 1 0
BITMAP
FF80
0800
0800
FF80
0800
0800
0800
0800
0800
0800
0800
0800
0800
0800
0800
0800
ENDCHAR
STARTCHAR tbar
ENCODING 359
SWIDTH 278 0
DWIDTH 8 0
BBX 7 16 0 0
BITMAP
10
10
10
10
10
10
FE
10
10
FE
10
10
10
10
10
10
ENDCHAR
STARTCHAR Utilde
ENCODING 360
SWIDTH 496 0
DWIDTH 13 0
BBX 11 20 1 0
BITMAP
0D80
1700
0300
0020
8020
8020
8020
8020
8020
8020
8020
8020
8020
8020
8020
8020
C040
4040
6080
1F00
ENDCHAR
STARTCHAR utilde
ENCODING 361
SWIDTH 390 0
DWIDTH 10 0
BBX 8 13 1 0
BITMAP
72
5E
0C
00
81
81
81
81
81
83
83
47
3D
ENDCHAR
STARTCHAR Umacron
ENCODING 362
SWIDTH 496 0
DWIDTH 13 0
BBX 11 20 1 0
BITMAP
1F80
0000
0000
0020
8020
8020
8020
8020
8020
8020
8020
8020
8020
8020
8020
8020
C040
4040
6080
1F00
ENDCHAR
STARTCHAR umacron
ENCODING 363
SWIDTH 390 0
DWIDTH 10 0
BBX 8 13 1 0
BITMAP
7E
00
00
00
81
81
81
81
81
83
83
47
3D
ENDCHAR
STARTCHAR Ubreve
ENCODING 364
SWIDTH 496 0
DWIDTH 13 0
BBX 11 21 1 0
BITMAP
1100
1900
0F00
0400
0020
8020
8020
8020
8020
8020
8020
8020
8020
8020
8020
8020
8020
C040
4040
6080
1F00
ENDCHAR
STARTCHAR ubreve
ENCODING 365
SWIDTH 390 0
DWIDTH 10 0
BBX 8 14 1 0
BITMAP
44
64
38
00
00
81
81
81
81
81
83
83
47
3D
ENDCHAR
STARTCHAR Uring
ENCODING 366
SWIDTH 496 0
DWIDTH 13 0
BBX 11 21 1 0
BITMAP
0600
0900
0B00
0600
0020
8020
8020
8020
8020
8020
8020
8020
8020
8020
8020
8020
8020
C040
4040
6080
1F00
ENDCHAR
STARTCHAR uring
ENCODING 367
SWIDTH 390 0
DWIDTH 10 0
BBX 8 14 1 0
BITMAP
1C
34
14
1C
00
81
81
81
81
81
83
83
47
3D
ENDCHAR
STARTCHAR Uhungarumlaut
ENCODING 368
SWIDTH 496 0
DWIDTH 13 0
BBX 11 22 1 0
BITMAP
0500
0D00
0900
0B00
1A00
0020
8020
8020
8020
8020
8020
8020
8020
8020
8020
8020
8020
8020
C040
4040
6080
1F00
ENDCHAR
STARTCHAR uhungarumlaut
ENCODING 369
SWIDTH 390 0
DWIDTH 10 0
BBX 8 15 1 0
BITMAP
12
16
34
24
00
00
81
81
81
81
81
83
83
47
3D
ENDCHAR
STARTCHAR Uogonek
ENCODING 370
SWIDTH 496 0
DWIDTH 13 0
BBX 11 20 1 -3
BITMAP
8020
8020
8020
8020
8020
8020
8020
8020
8020
8020
8020
8020
C060
4040
60C0
3180
1F00
0C00
0800
0F00
ENDCHAR
STARTCHAR uogonek
ENCODING 371
SWIDTH 390 0
DWIDTH 10 0
BBX 9 13 1 -4
BITMAP
8100
8100
8100
8100
8100
8300
8300
4700
3D00
0100
0200
0400
0780
ENDCHAR
STARTCHAR Wcircumflex
ENCODING 372
SWIDTH 692 0
DWIDTH 19 0
BBX 18 22 1 0
BITMAP
008000
01C000
014000
016000
022000
800080
8080C0
80C0C0
81C080
C16080
C12080
432080
423080
421180
461180
641900
240900
2C0D00
280D00
280500
380700
100300
ENDCHAR
STARTCHAR wcircumflex
ENCODING 373
SWIDTH 501 0
DWIDTH 14 0
BBX 12 15 1 0
BITMAP
0400
0A00
0B00
1100
0000
8410
8610
8E10
CA30
CB30
5920
51A0
50E0
70E0
20C0
ENDCHAR
STARTCHAR Ycircumflex
ENCODING 374
SWIDTH 386 0
DWIDTH 11 0
BBX 9 22 1 0
BITMAP
0800
1C00
1400
2200
0000
8080
8080
C180
4100
6300
2200
3600
1400
1C00
0800
0800
0800
0800
0800
0800
0800
0800
ENDCHAR
STARTCHAR ycircumflex
ENCODING 375
SWIDTH 337 0
DWIDTH 9 0
BBX 9 21 0 -6
BITMAP
0800
1400
1600
3200
0000
8080
4180
6100
2100
3300
1200
1A00
0E00
0C00
0C00
0C00
0C00
0800
1800
1800
1000
ENDCHAR
STARTCHAR Ydieresis
ENCODING 376
SWIDTH 386 0
DWIDTH 11 0
BBX 9 20 1 0
BITMAP
1400
1400
0000
8080
8080
C180
4100
6300
2200
3600
1400
1C00
0800
0800
0800
0800
0800
0800
0800
0800
ENDCHAR
STARTCHAR Zacute
ENCODING 377
SWIDTH 407 0
DWIDTH 11 0
BBX 10 22 1 0
BITMAP
0400
0C00
1800
3000
0000
0000
FFC0
0080
0180
0300
0300
0600
0400
0C00
1800
1800
3000
3000
6000
4000
C000
FFC0
ENDCHAR
STARTCHAR zacute
ENCODING 378
SWIDTH 325 0
DWIDTH 9 0
BBX 8 16 1 0
BITMAP
08
18
10
20
40
00
FE
06
0C
18
18
30
60
40
CF
FF
ENDCHAR
STARTCHAR Zdotaccent
ENCODING 379
SWIDTH 407 0
DWIDTH 11 0
BBX 10 20 1 0
BITMAP
0800
0800
0000
0000
FFC0
0080
0180
0300
0300
0600
0400
0C00
1800
1800
3000
3000
6000
4000
C000
FFC0
ENDCHAR
STARTCHAR zdotaccent
ENCODING 380
SWIDTH 325 0
DWIDTH 9 0
BBX 8 13 1 0
BITMAP
10
00
00
FE
06
0C
18
18
30
60
40
CF
FF
ENDCHAR
STARTCHAR Zcaron
ENCODING 381
SWIDTH 407 0
DWIDTH 11 0
BBX 10 22 1 0
BITMAP
3200
1600
1400
0C00
0000
0000
FFC0
0080
0180
0300
0300
0600
0400
0C00
1800
1800
3000
3000
6000
4000
C000
FFC0
ENDCHAR
STARTCHAR zcaron
ENCODING 382
SWIDTH 325 0
DWIDTH 9 0
BBX 8 15 1 0
BITMAP
4C
28
38
30
00
FE
06
0C
18
18
30
60
40
CF
FF
ENDCHAR
STARTCHAR florin
ENCODING 402
SWIDTH 407 0
DWIDTH 11 0
BBX 11 17 0 0
BITMAP
01C0
0260
0400
0400
0400
0400
0400
0400
1F80
0400
0400
0400
0400
0400
0400
4800
F800
ENDCHAR
STARTCHAR AEacute
ENCODING 508
SWIDTH 703 0
DWIDTH 20 0
BBX 18 23 1 0
BITMAP
001800
001000
002000
004000
000000
000000
00FFC0
018000
018000
038000
038000
068000
048000
0C8000
0FFF80
188000
108000
308000
208000
608000
408000
C08000
80FFC0
ENDCHAR
STARTCHAR aeacute
ENCODING 509
SWIDTH 617 0
DWIDTH 17 0
BBX 15 16 1 0
BITMAP
0100
0300
0600
0C00
0000
0270
1BF8
7F0C
C604
821C
83E0
8200
8206
4F0C
3BF8
0260
ENDCHAR
STARTCHAR Oslashacute
ENCODING 510
SWIDTH 517 0
DWIDTH 14 0
BBX 12 23 1 -1
BITMAP
0100
0300
0600
0C00
0800
0000
1F80
31C0
6160
4120
8330
8310
8210
8210
8610
8410
8410
8C10
4C20
6860
38C0
1F00
1000
ENDCHAR
STARTCHAR oslashacute
ENCODING 511
SWIDTH 367 0
DWIDTH 10 0
BBX 8 16 1 -1
BITMAP
04
0C
18
30
04
04
3C
4E
99
99
99
91
72
3C
30
20
ENDCHAR
STARTCHAR Scommaaccent
ENCODING 536
SWIDTH 469 0
DWIDTH 13 0
BBX 11 23 1 -6
BITMAP
0600
3F80
40C0
8000
8000
8000
8000
6000
3E00
0780
0060
0020
0020
0020
8060
F1C0
3F00
0000
0400
0600
0200
0600
0400
ENDCHAR
STARTCHAR scommaaccent
ENCODING 537
SWIDTH 328 0
DWIDTH 9 0
BBX 7 16 1 -6
BITMAP
78
CC
80
80
70
1C
02
02
C6
7C
00
10
18
08
18
10
ENDCHAR
STARTCHAR dotlessj
ENCODING 567
SWIDTH 166 0
DWIDTH 5 0
BBX 6 16 -3 -7
BITMAP
04
04
04
04
04
04
04
04
04
04
04
04
04
84
CC
78
ENDCHAR
STARTCHAR circumflex
ENCODING 710
SWIDTH 191 0
DWIDTH 5 0
BBX 5 4 0 11
BITMAP
20
70
50
C8
ENDCHAR
STARTCHAR caron
ENCODING 711
SWIDTH 191 0
DWIDTH 5 0
BBX 5 4 0 11
BITMAP
C8
58
50
30
ENDCHAR
STARTCHAR breve
ENCODING 728
SWIDTH 203 0
DWIDTH 6 0
BBX 5 3 0 11
BITMAP
C8
C8
78
ENDCHAR
STARTCHAR dotaccent
ENCODING 729
SWIDTH 71 0
DWIDTH 2 0
BBX 2 2 0 11
BITMAP
C0
80
ENDCHAR
STARTCHAR ring
ENCODING 730
SWIDTH 161 0
DWIDTH 5 0
BBX 4 4 0 10
BITMAP
70
90
F0
60
ENDCHAR
STARTCHAR ogonek
ENCODING 731
SWIDTH 167 0
DWIDTH 5 0
BBX 4 4 0 -3
BITMAP
30
60
C0
F0
ENDCHAR
STARTCHAR tilde
ENCODING 732
SWIDTH 218 0
DWIDTH 6 0
BBX 6 3 0 11
BITMAP
64
D8
18
ENDCHAR
STARTCHAR hungarumlaut
ENCODING 733
SWIDTH 200 0
DWIDTH 6 0
BBX 5 4 0 11
BITMAP
68
48
58
D0
ENDCHAR
STARTCHAR uni1E02
ENCODING 7682
SWIDTH 450 0
DWIDTH 13 0
BBX 10 19 2 0
BITMAP
1000
0000
FE00
8100
8080
8080
8080
8080
8100
8300
FE00
8180
8040
8040
8040
8040
8040
8180
FF00
ENDCHAR
STARTCHAR uni1E03
ENCODING 7683
SWIDTH 414 0
DWIDTH 11 0
BBX 9 16 1 0
BITMAP
8000
8000
8000
8800
8C00
8000
8C00
FF00
C180
8080
8080
8080
8080
C300
FE00
8000
ENDCHAR
STARTCHAR uni1E0A
ENCODING 7690
SWIDTH 492 0
DWIDTH 14 0
BBX 12 19 1 0
BITMAP
0800
0000
0000
F800
8700
8180
8040
8020
8010
8010
8010
8010
8010
8010
8020
8060
8080
8700
F800
ENDCHAR
STARTCHAR uni1E0B
ENCODING 7691
SWIDTH 408 0
DWIDTH 11 0
BBX 8 16 2 0
BITMAP
01
01
01
11
21
01
3D
67
C3
81
81
81
81
C3
7F
11
ENDCHAR
STARTCHAR uni1E1E
ENCODING 7710
SWIDTH 398 0
DWIDTH 11 0
BBX 9 18 2 1
BITMAP
1800
0000
0000
FF80
8000
8000
8000
8000
8000
8000
FF00
8000
8000
8000
8000
8000
8000
8000
ENDCHAR
STARTCHAR uni1E1F
ENCODING 7711
SWIDTH 314 0
DWIDTH 9 0
BBX 7 19 1 0
BITMAP
08
00
1C
36
22
20
20
20
20
FC
20
20
20
20
20
20
20
20
20
ENDCHAR
STARTCHAR uni1E40
ENCODING 7744
SWIDTH 648 0
DWIDTH 18 0
BBX 16 19 1 0
BITMAP
0180
0000
6004
6006
700E
700E
501E
581A
4812
4832
4C32
4422
4462
C643
C243
C2C3
C383
C181
C181
ENDCHAR
STARTCHAR uni1E41
ENCODING 7745
SWIDTH 623 0
DWIDTH 17 0
BBX 14 13 2 0
BITMAP
0100
0100
0000
BC70
E2C8
E288
C184
C104
C104
C104
C104
C104
C100
ENDCHAR
STARTCHAR uni1E56
ENCODING 7766
SWIDTH 432 0
DWIDTH 12 0
BBX 10 19 1 0
BITMAP
0C00
0000
FF00
8180
8040
8040
8040
8040
8040
80C0
8180
FE00
8000
8000
8000
8000
8000
8000
8000
ENDCHAR
STARTCHAR uni1E57
ENCODING 7767
SWIDTH 392 0
DWIDTH 11 0
BBX 8 20 2 -7
BITMAP
10
18
00
80
BC
C2
83
81
81
81
83
C6
FC
80
80
80
80
80
80
80
ENDCHAR
STARTCHAR uni1E60
ENCODING 7776
SWIDTH 469 0
DWIDTH 13 0
BBX 11 20 1 0
BITMAP
0400
0000
0000
0600
3F80
40C0
8000
8000
8000
8000
6000
3E00
0780
0060
0020
0020
0020
8060
F1C0
3F00
ENDCHAR
STARTCHAR uni1E61
ENCODING 7777
SWIDTH 328 0
DWIDTH 9 0
BBX 7 13 1 0
BITMAP
10
10
00
78
CC
80
80
70
1C
02
02
C6
7C
ENDCHAR
STARTCHAR uni1E6A
ENCODING 7786
SWIDTH 381 0
DWIDTH 11 0
BBX 9 19 1 0
BITMAP
0800
0000
0000
FF80
0800
0800
0800
0800
0800
0800
0800
0800
0800
0800
0800
0800
0800
0800
0800
ENDCHAR
STARTCHAR uni1E6B
ENCODING 7787
SWIDTH 278 0
DWIDTH 8 0
BBX 7 18 0 0
BITMAP
10
00
10
10
10
10
10
10
FE
10
10
10
10
10
10
10
10
10
ENDCHAR
STARTCHAR Wgrave
ENCODING 7808
SWIDTH 692 0
DWIDTH 19 0
BBX 18 21 1 0
BITMAP
010000
008000
00C000
004000
800080
8080C0
80C0C0
81C080
C16080
C12080
432080
423080
421180
461180
641900
240900
2C0D00
280D00
280500
380700
100300
ENDCHAR
STARTCHAR wgrave
ENCODING 7809
SWIDTH 501 0
DWIDTH 14 0
BBX 12 15 1 0
BITMAP
0C00
0400
0600
0300
0000
8410
8610
8E10
CA30
CB30
5920
51A0
50E0
70E0
20C0
ENDCHAR
STARTCHAR Wacute
ENCODING 7810
SWIDTH 692 0
DWIDTH 19 0
BBX 18 22 1 0
BITMAP
004000
006000
00C000
018000
010000
800080
8080C0
80C0C0
81C080
C16080
C12080
432080
423080
421180
461180
641900
240900
2C0D00
280D00
280500
380700
100300
ENDCHAR
STARTCHAR wacute
ENCODING 7811
SWIDTH 501 0
DWIDTH 14 0
BBX 12 15 1 0
BITMAP
0200
0600
0C00
1800
0000
8410
8610
8E10
CA30
CB30
5920
51A0
50E0
70E0
20C0
ENDCHAR
STARTCHAR Wdieresis
ENCODING 7812
SWIDTH 692 0
DWIDTH 19 0
BBX 18 20 1 0
BITMAP
004000
034000
000000
800080
8080C0
80C0C0
81C080
C16080
C12080
432080
423080
421180
461180
641900
240900
2C0D00
280D00
280500
380700
100300
ENDCHAR
STARTCHAR wdieresis
ENCODING 7813
SWIDTH 501 0
DWIDTH 14 0
BBX 12 13 1 0
BITMAP
0A00
1300
0000
8410
8610
8E10
CA30
CB30
5920
51A0
50E0
70E0
20C0
ENDCHAR
STARTCHAR Ygrave
ENCODING 7922
SWIDTH 386 0
DWIDTH 11 0
BBX 9 21 1 0
BITMAP
3000
1800
0C00
0000
8080
8080
C180
4100
6300
2200
3600
1400
1C00
0800
0800
0800
0800
0800
0800
0800
0800
ENDCHAR
STARTCHAR ygrave
ENCODING 7923
SWIDTH 337 0
DWIDTH 9 0
BBX 9 21 0 -6
BITMAP
1000
1800
0C00
0400
0000
8080
4180
6100
2100
3300
1200
1A00
0E00
0C00
0C00
0C00
0C00
0800
1800
1800
1000
ENDCHAR
STARTCHAR endash
ENCODING 8211
SWIDTH 385 0
DWIDTH 11 0
BBX 10 2 0 6
BITMAP
07C0
FFC0
ENDCHAR
STARTCHAR emdash
ENCODING 8212
SWIDTH 507 0
DWIDTH 14 0
BBX 14 2 0 6
BITMAP
01FC
FFFC
ENDCHAR
STARTCHAR quoteleft
ENCODING 8216
SWIDTH 133 0
DWIDTH 4 0
BBX 2 6 1 9
BITMAP
80
80
80
80
80
C0
ENDCHAR
STARTCHAR quoteright
ENCODING 8217
SWIDTH 120 0
DWIDTH 3 0
BBX 3 7 0 8
BITMAP
40
40
60
60
60
40
80
ENDCHAR
STARTCHAR quotedblleft
ENCODING 8220
SWIDTH 251 0
DWIDTH 7 0
BBX 5 7 1 8
BITMAP
D0
98
90
90
98
C8
40
ENDCHAR
STARTCHAR quotedblright
ENCODING 8221
SWIDTH 242 0
DWIDTH 7 0
BBX 5 7 1 8
BITMAP
10
98
C8
C8
C8
D8
90
ENDCHAR
STARTCHAR dagger
ENCODING 8224
SWIDTH 262 0
DWIDTH 7 0
BBX 7 24 0 -4
BITMAP
10
10
10
10
10
10
10
10
10
10
FE
10
10
10
10
10
10
10
10
10
10
10
10
10
ENDCHAR
STARTCHAR daggerdbl
ENCODING 8225
SWIDTH 262 0
DWIDTH 7 0
BBX 7 24 0 -4
BITMAP
10
10
10
10
10
10
10
10
10
10
FE
10
10
10
10
10
10
10
10
FE
10
10
10
10
ENDCHAR
STARTCHAR bullet
ENCODING 8226
SWIDTH 143 0
DWIDTH 4 0
BBX 2 3 1 6
BITMAP
C0
C0
C0
ENDCHAR
STARTCHAR ellipsis
ENCODING 8230
SWIDTH 274 0
DWIDTH 8 0
BBX 7 1 0 0
BITMAP
DA
ENDCHAR
STARTCHAR perthousand
ENCODING 8240
SWIDTH 670 0
DWIDTH 19 0
BBX 17 14 1 0
BITMAP
780C00
CC1800
843000
8C6000
C8C000
718700
030D80
061880
0CF880
199880
711F00
C11800
81B000
00E000
ENDCHAR
STARTCHAR fraction
ENCODING 8260
SWIDTH 237 0
DWIDTH 7 0
BBX 6 18 0 -1
BITMAP
04
04
0C
0C
08
08
18
18
10
30
30
20
20
60
40
40
C0
80
ENDCHAR
STARTCHAR colonmonetary
ENCODING 8353
SWIDTH 437 0
DWIDTH 12 0
BBX 11 19 1 -1
BITMAP
0400
0D00
1F00
3B80
5BC0
5B00
9A00
9A00
9A00
B600
B600
B600
B400
B460
7440
6CC0
3F80
3E00
2C00
ENDCHAR
STARTCHAR franc
ENCODING 8355
SWIDTH 437 0
DWIDTH 12 0
BBX 11 16 1 0
BITMAP
3FE0
2000
2000
2000
2000
2000
2000
3FC0
2000
2000
2000
2000
FC00
2000
2000
2000
ENDCHAR
STARTCHAR lira
ENCODING 8356
SWIDTH 444 0
DWIDTH 12 0
BBX 11 16 0 0
BITMAP
07C0
0C60
1820
1000
1000
1000
7F80
1000
1000
7F80
1000
1000
1000
1000
1000
FFE0
ENDCHAR
STARTCHAR Euro
ENCODING 8364
SWIDTH 454 0
DWIDTH 13 0
BBX 11 16 1 0
BITMAP
0E00
1B00
3180
2080
6080
4000
4000
4F00
FF00
4000
7F00
F820
6060
2040
30C0
1F00
ENDCHAR
STARTCHAR trademark
ENCODING 8482
SWIDTH 741 0
DWIDTH 21 0
BBX 20 10 0 7
BITMAP
FF8040
083060
0830E0
0838A0
0828A0
0869B0
086D30
086730
084610
084610
ENDCHAR
STARTCHAR minus
ENCODING 8722
SWIDTH 311 0
DWIDTH 9 0
BBX 8 2 0 6
BITMAP
0F
FF
ENDCHAR
STARTCHAR notequal
ENCODING 8800
SWIDTH 307 0
DWIDTH 9 0
BBX 7 8 1 3
BITMAP
06
0C
FE
10
30
FE
60
C0
ENDCHAR
STARTCHAR lessequal
ENCODING 8804
SWIDTH 351 0
DWIDTH 10 0
BBX 8 9 1 3
BITMAP
0E
18
70
C0
F0
1C
06
00
FF
ENDCHAR
STARTCHAR greaterequal
ENCODING 8805
SWIDTH 351 0
DWIDTH 10 0
BBX 8 9 1 3
BITMAP
60
18
0C
03
0F
78
C0
00
FF
ENDCHAR
STARTCHAR .notdef
ENCODING -1
SWIDTH 280 0
DWIDTH 8 0
BBX 1 1 0 0
BITMAP
00
ENDCHAR
STARTCHAR commaaccent
ENCODING -1
SWIDTH 100 0
DWIDTH 3 0
BBX 2 5 0 -6
BITMAP
40
C0
40
40
C0
ENDCHAR
STARTCHAR undercommaaccent
ENCODING -1
SWIDTH 100 0
DWIDTH 3 0
BBX 2 5 0 -6
BITMAP
40
C0
40
40
C0
ENDCHAR
ENDFONT
